<svg xmlns="http://www.w3.org/2000/svg" viewBox="0 0 24 24" width="24" height="24" fill="none" stroke="currentColor" stroke-width="1.75" stroke-linecap="round" stroke-linejoin="round">
  <!-- The page outline, corner fold and padlock body are Lucide geometry (ISC). Full notice and
       the exact paths: src/core/icons/LICENSE-lucide.txt, which must stay with this file. -->
  <path d="M4 9.8V4a2 2 0 0 1 2-2h8a2.4 2.4 0 0 1 1.706.706l3.588 3.588A2.4 2.4 0 0 1 20 8v12a2 2 0 0 1-2 2h-3" />
  <path d="M14 2v5a1 1 0 0 0 1 1h5" />
  <path d="M5 17v-2a2 2 0 0 1 3.96-.4" />
  <rect width="8" height="5" x="3" y="17" rx="1" />
</svg>
