<svg width="118" height="26" viewBox="0 0 118 26" fill="none" xmlns="http://www.w3.org/2000/svg">
<path d="M5.89479 22.2333C4.71702 22.2333 3.7059 22.0667 2.86146 21.7333C2.03924 21.4 1.4059 20.8111 0.96146 19.9667C0.517015 19.1222 0.294793 17.9333 0.294793 16.4V15.2333C0.983682 15.2333 1.66146 15.2333 2.32813 15.2333C2.99479 15.2333 3.66146 15.2333 4.32813 15.2333V16.7333C4.32813 17.5556 4.39479 18.1889 4.52813 18.6333C4.66146 19.0556 4.85035 19.3556 5.09479 19.5333C5.33924 19.6889 5.62813 19.7667 5.96146 19.7667C6.47257 19.7667 6.87257 19.5889 7.16146 19.2333C7.47257 18.8556 7.62813 18.1333 7.62813 17.0667C7.62813 16.2444 7.49479 15.6333 7.22813 15.2333C6.98368 14.8111 6.58368 14.4778 6.02813 14.2333C5.47257 13.9667 4.76146 13.6444 3.89479 13.2667C3.11702 12.9333 2.47257 12.5333 1.96146 12.0667C1.45035 11.6 1.07257 11.0111 0.828126 10.3C0.583682 9.58889 0.46146 8.72222 0.46146 7.7C0.46146 6.41111 0.628126 5.36667 0.96146 4.56667C1.31702 3.76667 1.89479 3.18889 2.69479 2.83333C3.51702 2.45556 4.61702 2.26667 5.99479 2.26667C7.77257 2.26667 9.12813 2.65556 10.0615 3.43333C11.017 4.18889 11.4948 5.33333 11.4948 6.86667V9.23333C10.8503 9.23333 10.2059 9.23333 9.56146 9.23333C8.93924 9.23333 8.29479 9.23333 7.62813 9.23333V8.03333C7.62813 7.03333 7.5059 6.33333 7.26146 5.93333C7.03924 5.53333 6.62813 5.33333 6.02813 5.33333C5.45035 5.33333 5.03924 5.51111 4.79479 5.86667C4.55035 6.22222 4.42813 6.8 4.42813 7.6C4.42813 8.33333 4.57257 8.91111 4.86146 9.33333C5.17257 9.73333 5.56146 10.0444 6.02813 10.2667C6.49479 10.4667 6.99479 10.6667 7.52813 10.8667C8.5059 11.2444 9.3059 11.6333 9.92813 12.0333C10.5503 12.4111 11.0059 12.9444 11.2948 13.6333C11.5837 14.3 11.7281 15.2667 11.7281 16.5333C11.7281 17.9556 11.4837 19.0889 10.9948 19.9333C10.5281 20.7556 9.85035 21.3444 8.96146 21.7C8.09479 22.0556 7.07257 22.2333 5.89479 22.2333ZM18.649 22.1C18.1378 22.1 17.6267 22.0556 17.1156 21.9667C16.6045 21.8778 16.149 21.7111 15.749 21.4667C15.349 21.2 15.0267 20.8333 14.7823 20.3667C14.5378 19.8778 14.4156 19.2333 14.4156 18.4333V7.73333H12.849V5.83333L14.749 5.5L15.2823 2.46667H18.2156V5.5H21.349V7.73333H18.2156V17.7667C18.2156 18.2333 18.3045 18.6556 18.4823 19.0333C18.6601 19.3889 19.0601 19.5667 19.6823 19.5667C19.9712 19.5667 20.3045 19.5556 20.6823 19.5333C21.0601 19.4889 21.2823 19.4667 21.349 19.4667V21.7667C21.2823 21.7667 20.9712 21.8222 20.4156 21.9333C19.8823 22.0444 19.2934 22.1 18.649 22.1ZM22.9938 22V5.5H26.7938V22H22.9938ZM24.8938 3.66667C24.4049 3.66667 23.9826 3.5 23.6271 3.16667C23.2715 2.81111 23.0938 2.4 23.0938 1.93333C23.0938 1.44444 23.2715 1.03333 23.6271 0.699999C23.9826 0.366666 24.4049 0.199999 24.8938 0.199999C25.3826 0.199999 25.8049 0.366666 26.1604 0.699999C26.5382 1.03333 26.7271 1.44444 26.7271 1.93333C26.7271 2.4 26.5382 2.81111 26.1604 3.16667C25.8049 3.5 25.3826 3.66667 24.8938 3.66667ZM29.3089 22V5.5H32.5422L32.8755 7.46667C33.0755 6.97778 33.3755 6.58889 33.7755 6.3C34.1755 5.98889 34.5977 5.77778 35.0422 5.66667C35.7755 5.35556 36.5422 5.27778 37.3422 5.43333V8.36667C37.2977 8.34444 37.12 8.32222 36.8089 8.3C36.52 8.25556 36.1866 8.25556 35.8089 8.3C35.4311 8.32222 35.1089 8.41111 34.8422 8.56667C34.2866 8.76667 33.8533 9.11111 33.5422 9.6C33.2533 10.0889 33.1089 10.6778 33.1089 11.3667V22H29.3089ZM38.6839 22V0.933333H42.4839V22H38.6839ZM44.999 22V5.5H48.799V22H44.999ZM46.899 3.66667C46.4101 3.66667 45.9878 3.5 45.6323 3.16667C45.2767 2.81111 45.099 2.4 45.099 1.93333C45.099 1.44444 45.2767 1.03333 45.6323 0.699999C45.9878 0.366666 46.4101 0.199999 46.899 0.199999C47.3878 0.199999 47.8101 0.366666 48.1656 0.699999C48.5434 1.03333 48.7323 1.44444 48.7323 1.93333C48.7323 2.4 48.5434 2.81111 48.1656 3.16667C47.8101 3.5 47.3878 3.66667 46.899 3.66667ZM51.3141 22V5.5H54.5474L54.8807 7.43333C55.0807 6.76667 55.4696 6.22222 56.0474 5.8C56.6474 5.37778 57.303 5.16667 58.0141 5.16667C59.0807 5.16667 59.8807 5.35556 60.4141 5.73333C60.9474 6.08889 61.303 6.6 61.4807 7.26667C61.6807 7.91111 61.7807 8.67778 61.7807 9.56667V22H57.9807V9.8C57.9807 9.53333 57.9696 9.28889 57.9474 9.06667C57.9252 8.82222 57.8585 8.61111 57.7474 8.43333C57.6585 8.25556 57.5252 8.12222 57.3474 8.03333C57.1696 7.92222 56.903 7.86667 56.5474 7.86667C56.2807 7.86667 56.0474 7.92222 55.8474 8.03333C55.6474 8.12222 55.4918 8.23333 55.3807 8.36667C55.2696 8.5 55.1807 8.62222 55.1141 8.73333V22H51.3141ZM68.976 25.9667C68.6649 25.9667 68.2872 25.9556 67.8427 25.9333C67.3983 25.9111 66.9538 25.8778 66.5094 25.8333C66.0872 25.7889 65.7205 25.7444 65.4094 25.7C65.1205 25.6778 64.9427 25.6556 64.876 25.6333V23.6C65.1649 23.6444 65.5983 23.6889 66.176 23.7333C66.7538 23.8 67.2427 23.8333 67.6427 23.8333C67.9983 23.8333 68.3316 23.8 68.6427 23.7333C68.976 23.6889 69.2649 23.5778 69.5094 23.4C69.776 23.2444 69.9872 23 70.1427 22.6667C70.2983 22.3556 70.376 21.9333 70.376 21.4V19.0333C70.2649 19.3 70.0983 19.6 69.876 19.9333C69.676 20.2444 69.376 20.5111 68.976 20.7333C68.576 20.9556 68.0094 21.0667 67.276 21.0667C66.7427 21.0667 66.2538 21.0111 65.8094 20.9C65.3872 20.7667 65.0205 20.5333 64.7094 20.2C64.4205 19.8444 64.1872 19.3444 64.0094 18.7C63.8316 18.0333 63.7427 17.1667 63.7427 16.1V9.36667C63.7427 7.96667 64.0316 6.92222 64.6094 6.23333C65.2094 5.52222 66.1094 5.16667 67.3094 5.16667C68.0205 5.16667 68.5872 5.25556 69.0094 5.43333C69.4538 5.61111 69.8094 5.86667 70.076 6.2C70.3427 6.51111 70.5538 6.87778 70.7094 7.3L70.2094 7.36667L70.776 5.5H74.176V19.5333C74.176 20.3333 74.0983 21.1222 73.9427 21.9C73.8094 22.6556 73.5649 23.3333 73.2094 23.9333C72.8538 24.5556 72.3316 25.0444 71.6427 25.4C70.976 25.7778 70.0872 25.9667 68.976 25.9667ZM68.9094 18.8C69.2872 18.8 69.576 18.7111 69.776 18.5333C69.9983 18.3333 70.1427 18.0667 70.2094 17.7333C70.2983 17.3778 70.3427 17.0111 70.3427 16.6333V8.46667C70.2983 8.35556 70.2205 8.24444 70.1094 8.13333C69.9983 8.02222 69.8427 7.92222 69.6427 7.83333C69.4649 7.74444 69.2094 7.7 68.876 7.7C68.4316 7.7 68.0983 7.83333 67.876 8.1C67.6538 8.34444 67.5427 8.81111 67.5427 9.5V17.1C67.5427 17.4778 67.5872 17.7889 67.676 18.0333C67.7649 18.2556 67.876 18.4222 68.0094 18.5333C68.1649 18.6444 68.3205 18.7222 68.476 18.7667C68.6316 18.7889 68.776 18.8 68.9094 18.8Z" fill="black"/>
<path d="M82.2425 22V2.3H89.2425C90.5536 2.3 91.5425 2.6 92.2091 3.2C92.898 3.77778 93.2425 4.58889 93.2425 5.63333V9.03333C93.2425 9.92222 93.1313 10.7556 92.9091 11.5333C92.6869 12.2889 92.2869 12.9 91.7091 13.3667C91.1313 13.8333 90.298 14.0667 89.2091 14.0667H86.2758V22H82.2425ZM86.2758 11.9333H87.7758C88.3091 11.9333 88.7091 11.6778 88.9758 11.1667C89.2425 10.6556 89.3758 9.81111 89.3758 8.63333V7.3C89.3758 6.25556 89.2647 5.51111 89.0425 5.06667C88.8202 4.62222 88.498 4.4 88.0758 4.4H86.2758V11.9333ZM95.3284 22V2.3H102.228C103.162 2.3 103.928 2.43333 104.528 2.7C105.151 2.96667 105.606 3.37778 105.895 3.93333C106.206 4.46667 106.362 5.14444 106.362 5.96667V17.7667C106.362 18.8556 106.173 19.7111 105.795 20.3333C105.417 20.9556 104.873 21.3889 104.162 21.6333C103.473 21.8778 102.651 22 101.695 22H95.3284ZM99.3617 20H101.062C101.506 20 101.851 19.8667 102.095 19.6C102.362 19.3333 102.495 18.8333 102.495 18.1V6.4C102.495 5.66667 102.362 5.16667 102.095 4.9C101.851 4.63333 101.506 4.5 101.062 4.5H99.3617V20ZM108.935 22V2.3H118.002V5.03333H112.968V10.3H117.235V13.3333H112.968V22H108.935Z" fill="#C56565"/>
</svg>
