<svg width="77" height="84" viewBox="0 0 77 84" fill="none" xmlns="http://www.w3.org/2000/svg">
<path d="M32.2124 83.9997L69.3441 75.2005L76.282 43.5585L32.2124 83.9997Z" fill="#D0DBDC"/>
<path d="M55.4932 0.119995C59.0409 -0.585293 62.4223 1.9086 62.3672 5.23425L62.3389 7.60339L67.8281 6.51941C71.9024 5.71349 75.7821 8.53542 75.8379 12.3397L76.2266 43.5839L54.0576 64.2264L32.209 83.9999L7.40137 81.0516C3.18818 80.5981 8.70906e-05 77.3479 0 73.4677V18.8661C3.4631e-05 14.4063 3.40977 10.5511 8.20508 9.59363L55.4932 0.119995ZM45.4023 19.3212C37.9183 15.6676 26.9971 18.3632 26.9971 18.3632C18.6818 20.7316 15.7434 26.2243 14.7178 30.1298C13.9417 33.1282 14.136 36.253 15.2725 39.0751C17.684 45.0213 23.5324 46.8357 29.7412 48.5995C37.5024 50.7916 36.0059 54.7977 36.0059 54.7977C35.1189 57.544 32.9294 58.451 31.0723 58.703C29.6032 58.9046 28.0783 58.703 26.6924 58.1991C19.2266 55.4091 16.588 49.6354 16.5752 49.6073H15.2441L15.7432 62.6337C18.4595 64.1706 24.0035 65.4559 27.1357 66.0858C29.4087 66.5646 31.7654 66.7159 34.0938 66.4891C47.3152 65.1787 48.1191 53.7645 48.1191 53.7645C49.5327 41.5946 38.0017 38.5707 31.0166 37.1093C29.714 36.8321 28.7161 36.4799 27.9678 36.0516C24.8078 34.3131 25.1684 29.9283 28.6055 28.3661C30.9338 27.3081 33.8999 27.6354 35.8955 28.4921C39.0277 29.8529 43.2686 34.8671 43.2686 34.8671H45.0703L45.4023 19.3212Z" fill="white"/>
<path d="M62.394 7.60263V57.1394L76.2811 43.5584L75.8931 11.2814C75.8653 8.00577 72.5114 5.58689 68.9911 6.2924L62.394 7.60263Z" fill="#EEEEEE"/>
</svg>
