<svg xmlns="http://www.w3.org/2000/svg" viewBox="0 0 100 100" width="100" height="100">
  <!-- Shaggy document shape -->
  <path d="M20 10 L20 8 L22 6 L24 8 L26 6 L28 8 L30 6 L32 8 L34 6 L36 8 L38 6 L40 8 L42 6 L44 8 L46 6 L48 8 L50 6 L52 8 L54 6 L56 8 L58 6 L60 8 L62 6 L64 8 L66 6 L68 8 L70 6 L72 8 L74 6 L76 8 L78 6 L80 8 L80 10 L82 12 L80 14 L82 16 L80 18 L82 20 L80 22 L82 24 L80 26 L82 28 L80 30 L82 32 L80 34 L82 36 L80 38 L82 40 L80 42 L82 44 L80 46 L82 48 L80 50 L82 52 L80 54 L82 56 L80 58 L82 60 L80 62 L82 64 L80 66 L82 68 L80 70 L82 72 L80 74 L82 76 L80 78 L82 80 L80 82 L78 84 L76 82 L74 84 L72 82 L70 84 L68 82 L66 84 L64 82 L62 84 L60 82 L58 84 L56 82 L54 84 L52 82 L50 84 L48 82 L46 84 L44 82 L42 84 L40 82 L38 84 L36 82 L34 84 L32 82 L30 84 L28 82 L26 84 L24 82 L22 84 L20 82 L20 80 L18 78 L20 76 L18 74 L20 72 L18 70 L20 68 L18 66 L20 64 L18 62 L20 60 L18 58 L20 56 L18 54 L20 52 L18 50 L20 48 L18 46 L20 44 L18 42 L20 40 L18 38 L20 36 L18 34 L20 32 L18 30 L20 28 L18 26 L20 24 L18 22 L20 20 L18 18 L20 16 L18 14 L20 12 Z" fill="#2D5016"/>
  
  <!-- Folded corner -->
  <path d="M65 10 L65 25 L80 25 Z" fill="#F4A460"/>
  
  <!-- Document lines -->
  <rect x="30" y="35" width="25" height="3" fill="#F4A460"/>
  <rect x="30" y="45" width="25" height="3" fill="#F4A460"/>
  <rect x="30" y="55" width="25" height="3" fill="#F4A460"/>
</svg>