<svg xmlns="http://www.w3.org/2000/svg" width="933.333" height="933.333" preserveAspectRatio="xMidYMid meet" version="1.0" viewBox="0 0 700 700"><metadata>Created by potrace 1.14, written by Peter Selinger 2001-2017</metadata><g fill="#000" stroke="none"><path d="M4340 6716 c-228 -51 -910 -202 -1515 -336 -1479 -326 -1522 -335 -1587 -360 -155 -58 -315 -206 -391 -363 -83 -170 -77 40 -77 -2484 0 -1985 2 -2256 15 -2307 53 -204 228 -378 431 -430 32 -8 464 -67 959 -132 l900 -117 659 664 c362 365 1074 1083 1581 1595 l923 931 -4 84 c-2 46 -9 622 -14 1279 -6 657 -15 1219 -21 1249 -29 169 -167 304 -337 331 -74 12 -116 6 -397 -55 -112 -25 -208 -45 -214 -45 -7 0 -11 33 -11 98 0 54 -5 125 -11 158 -24 129 -106 237 -225 295 -59 29 -78 33 -158 35 -83 3 -128 -6 -506 -90z m-741 -1297 c108 -15 244 -53 336 -91 l80 -34 -4 -314 c-2 -173 -7 -450 -10 -615 l-6 -300 -61 -3 -61 -3 -74 88 c-298 355 -496 483 -747 483 -74 0 -202 -32 -257 -65 -106 -61 -177 -184 -178 -305 0 -82 15 -135 56 -197 62 -92 157 -138 437 -209 393 -99 639 -221 826 -408 136 -137 206 -259 255 -442 30 -113 37 -363 15 -494 -85 -488 -398 -821 -866 -921 -87 -19 -136 -23 -285 -23 -165 0 -193 3 -335 33 -280 59 -585 154 -746 231 l-80 39 -12 373 c-7 205 -15 437 -19 516 l-6 142 51 0 c32 0 52 -4 52 -11 0 -24 99 -176 172 -264 125 -151 278 -272 455 -359 147 -73 181 -81 328 -81 127 0 132 1 202 34 137 64 236 205 236 337 0 131 -96 257 -262 343 -45 23 -180 75 -300 116 -333 112 -496 191 -646 312 -321 260 -442 767 -290 1219 110 330 325 579 633 733 144 73 364 127 613 151 113 10 395 5 498 -11z" transform="translate(0.000000,700.000000) scale(0.100000,-0.100000)"/></g></svg>