<svg width="107" height="24" viewBox="0 0 107 24" fill="none" xmlns="http://www.w3.org/2000/svg">
<path d="M5.20531 20.21C4.14531 20.21 3.23531 20.06 2.47531 19.76C1.73531 19.46 1.16531 18.93 0.765313 18.17C0.365313 17.41 0.165313 16.34 0.165313 14.96V13.91C0.785313 13.91 1.39531 13.91 1.99531 13.91C2.59531 13.91 3.19531 13.91 3.79531 13.91V15.26C3.79531 16 3.85531 16.57 3.97531 16.97C4.09531 17.35 4.26531 17.62 4.48531 17.78C4.70531 17.92 4.96531 17.99 5.26531 17.99C5.72531 17.99 6.08531 17.83 6.34531 17.51C6.62531 17.17 6.76531 16.52 6.76531 15.56C6.76531 14.82 6.64531 14.27 6.40531 13.91C6.18531 13.53 5.82531 13.23 5.32531 13.01C4.82531 12.77 4.18531 12.48 3.40531 12.14C2.70531 11.84 2.12531 11.48 1.66531 11.06C1.20531 10.64 0.865313 10.11 0.645313 9.47C0.425313 8.83 0.315313 8.05 0.315313 7.13C0.315313 5.97 0.465313 5.03 0.765313 4.31C1.08531 3.59 1.60531 3.07 2.32531 2.75C3.06531 2.41 4.05531 2.24 5.29531 2.24C6.89531 2.24 8.11531 2.59 8.95531 3.29C9.81531 3.97 10.2453 5 10.2453 6.38V8.51C9.66531 8.51 9.08531 8.51 8.50531 8.51C7.94531 8.51 7.36531 8.51 6.76531 8.51V7.43C6.76531 6.53 6.65531 5.9 6.43531 5.54C6.23531 5.18 5.86531 5 5.32531 5C4.80531 5 4.43531 5.16 4.21531 5.48C3.99531 5.8 3.88531 6.32 3.88531 7.04C3.88531 7.7 4.01531 8.22 4.27531 8.6C4.55531 8.96 4.90531 9.24 5.32531 9.44C5.74531 9.62 6.19531 9.8 6.67531 9.98C7.55531 10.32 8.27531 10.67 8.83531 11.03C9.39531 11.37 9.80531 11.85 10.0653 12.47C10.3253 13.07 10.4553 13.94 10.4553 15.08C10.4553 16.36 10.2353 17.38 9.79531 18.14C9.37531 18.88 8.76531 19.41 7.96531 19.73C7.18531 20.05 6.26531 20.21 5.20531 20.21ZM16.6841 20.09C16.2241 20.09 15.7641 20.05 15.3041 19.97C14.8441 19.89 14.4341 19.74 14.0741 19.52C13.7141 19.28 13.4241 18.95 13.2041 18.53C12.9841 18.09 12.8741 17.51 12.8741 16.79V7.16H11.4641V5.45L13.1741 5.15L13.6541 2.42H16.2941V5.15H19.1141V7.16H16.2941V16.19C16.2941 16.61 16.3741 16.99 16.5341 17.33C16.6941 17.65 17.0541 17.81 17.6141 17.81C17.8741 17.81 18.1741 17.8 18.5141 17.78C18.8541 17.74 19.0541 17.72 19.1141 17.72V19.79C19.0541 19.79 18.7741 19.84 18.2741 19.94C17.7941 20.04 17.2641 20.09 16.6841 20.09ZM20.5944 20V5.15H24.0144V20H20.5944ZM22.3044 3.5C21.8644 3.5 21.4844 3.35 21.1644 3.05C20.8444 2.73 20.6844 2.36 20.6844 1.94C20.6844 1.5 20.8444 1.13 21.1644 0.829998C21.4844 0.529999 21.8644 0.379999 22.3044 0.379999C22.7444 0.379999 23.1244 0.529999 23.4444 0.829998C23.7844 1.13 23.9544 1.5 23.9544 1.94C23.9544 2.36 23.7844 2.73 23.4444 3.05C23.1244 3.35 22.7444 3.5 22.3044 3.5ZM26.278 20V5.15H29.188L29.488 6.92C29.668 6.48 29.938 6.13 30.298 5.87C30.658 5.59 31.038 5.4 31.438 5.3C32.098 5.02 32.788 4.95 33.508 5.09V7.73C33.468 7.71 33.308 7.69 33.028 7.67C32.768 7.63 32.468 7.63 32.128 7.67C31.788 7.69 31.498 7.77 31.258 7.91C30.758 8.09 30.368 8.4 30.088 8.84C29.828 9.28 29.698 9.81 29.698 10.43V20H26.278ZM34.7155 20V1.04H38.1355V20H34.7155ZM40.3991 20V5.15H43.8191V20H40.3991ZM42.1091 3.5C41.6691 3.5 41.2891 3.35 40.9691 3.05C40.6491 2.73 40.4891 2.36 40.4891 1.94C40.4891 1.5 40.6491 1.13 40.9691 0.829998C41.2891 0.529999 41.6691 0.379999 42.1091 0.379999C42.5491 0.379999 42.9291 0.529999 43.2491 0.829998C43.5891 1.13 43.7591 1.5 43.7591 1.94C43.7591 2.36 43.5891 2.73 43.2491 3.05C42.9291 3.35 42.5491 3.5 42.1091 3.5ZM46.0827 20V5.15H48.9927L49.2927 6.89C49.4727 6.29 49.8227 5.8 50.3427 5.42C50.8827 5.04 51.4727 4.85 52.1127 4.85C53.0727 4.85 53.7927 5.02 54.2727 5.36C54.7527 5.68 55.0727 6.14 55.2327 6.74C55.4127 7.32 55.5027 8.01 55.5027 8.81V20H52.0827V9.02C52.0827 8.78 52.0727 8.56 52.0527 8.36C52.0327 8.14 51.9727 7.95 51.8727 7.79C51.7927 7.63 51.6727 7.51 51.5127 7.43C51.3527 7.33 51.1127 7.28 50.7927 7.28C50.5527 7.28 50.3427 7.33 50.1627 7.43C49.9827 7.51 49.8427 7.61 49.7427 7.73C49.6427 7.85 49.5627 7.96 49.5027 8.06V20H46.0827ZM61.9784 23.57C61.6984 23.57 61.3584 23.56 60.9584 23.54C60.5584 23.52 60.1584 23.49 59.7584 23.45C59.3784 23.41 59.0484 23.37 58.7684 23.33C58.5084 23.31 58.3484 23.29 58.2884 23.27V21.44C58.5484 21.48 58.9384 21.52 59.4584 21.56C59.9784 21.62 60.4184 21.65 60.7784 21.65C61.0984 21.65 61.3984 21.62 61.6784 21.56C61.9784 21.52 62.2384 21.42 62.4584 21.26C62.6984 21.12 62.8884 20.9 63.0284 20.6C63.1684 20.32 63.2384 19.94 63.2384 19.46V17.33C63.1384 17.57 62.9884 17.84 62.7884 18.14C62.6084 18.42 62.3384 18.66 61.9784 18.86C61.6184 19.06 61.1084 19.16 60.4484 19.16C59.9684 19.16 59.5284 19.11 59.1284 19.01C58.7484 18.89 58.4184 18.68 58.1384 18.38C57.8784 18.06 57.6684 17.61 57.5084 17.03C57.3484 16.43 57.2684 15.65 57.2684 14.69V8.63C57.2684 7.37 57.5284 6.43 58.0484 5.81C58.5884 5.17 59.3984 4.85 60.4784 4.85C61.1184 4.85 61.6284 4.93 62.0084 5.09C62.4084 5.25 62.7284 5.48 62.9684 5.78C63.2084 6.06 63.3984 6.39 63.5384 6.77L63.0884 6.83L63.5984 5.15H66.6584V17.78C66.6584 18.5 66.5884 19.21 66.4484 19.91C66.3284 20.59 66.1084 21.2 65.7884 21.74C65.4684 22.3 64.9984 22.74 64.3784 23.06C63.7784 23.4 62.9784 23.57 61.9784 23.57ZM61.9184 17.12C62.2584 17.12 62.5184 17.04 62.6984 16.88C62.8984 16.7 63.0284 16.46 63.0884 16.16C63.1684 15.84 63.2084 15.51 63.2084 15.17V7.82C63.1684 7.72 63.0984 7.62 62.9984 7.52C62.8984 7.42 62.7584 7.33 62.5784 7.25C62.4184 7.17 62.1884 7.13 61.8884 7.13C61.4884 7.13 61.1884 7.25 60.9884 7.49C60.7884 7.71 60.6884 8.13 60.6884 8.75V15.59C60.6884 15.93 60.7284 16.21 60.8084 16.43C60.8884 16.63 60.9884 16.78 61.1084 16.88C61.2484 16.98 61.3884 17.05 61.5284 17.09C61.6684 17.11 61.7984 17.12 61.9184 17.12Z" fill="black" fill-opacity="0.3"/>
<path d="M73.9182 20V2.27H80.2182C81.3982 2.27 82.2882 2.54 82.8882 3.08C83.5082 3.6 83.8182 4.33 83.8182 5.27V8.33C83.8182 9.13 83.7182 9.88 83.5182 10.58C83.3182 11.26 82.9582 11.81 82.4382 12.23C81.9182 12.65 81.1682 12.86 80.1882 12.86H77.5482V20H73.9182ZM77.5482 10.94H78.8982C79.3782 10.94 79.7382 10.71 79.9782 10.25C80.2182 9.79 80.3382 9.03 80.3382 7.97V6.77C80.3382 5.83 80.2382 5.16 80.0382 4.76C79.8382 4.36 79.5482 4.16 79.1682 4.16H77.5482V10.94ZM85.6955 20V2.27H91.9055C92.7455 2.27 93.4355 2.39 93.9755 2.63C94.5355 2.87 94.9455 3.24 95.2055 3.74C95.4855 4.22 95.6255 4.83 95.6255 5.57V16.19C95.6255 17.17 95.4555 17.94 95.1155 18.5C94.7755 19.06 94.2855 19.45 93.6455 19.67C93.0255 19.89 92.2855 20 91.4255 20H85.6955ZM89.3255 18.2H90.8555C91.2555 18.2 91.5655 18.08 91.7855 17.84C92.0255 17.6 92.1455 17.15 92.1455 16.49V5.96C92.1455 5.3 92.0255 4.85 91.7855 4.61C91.5655 4.37 91.2555 4.25 90.8555 4.25H89.3255V18.2ZM97.9416 20V2.27H106.102V4.73H101.572V9.47H105.412V12.2H101.572V20H97.9416Z" fill="#D62626" fill-opacity="0.7"/>
</svg>
