<svg width="99" height="108" viewBox="0 0 99 108" fill="none" xmlns="http://www.w3.org/2000/svg">
<g filter="url(#filter0_d_3814_84410)">
<path d="M70.0628 0.142909L13.7675 11.4215C8.05881 12.5613 4 17.1507 4 22.46V87.4616C4 92.081 7.79482 95.9505 12.8106 96.4905L42.3442 100L68.3543 76.4604L94.7457 51.8862L94.2837 14.691C94.2177 10.1616 89.5979 6.80205 84.7471 7.76192L78.2134 9.05176L78.2464 6.23212C78.3124 2.27263 74.2866 -0.696983 70.0628 0.142909Z" fill="#C02223"/>
<path d="M78.2812 9.05175V68.0241L94.8135 51.8562L94.3515 13.4312C94.3185 9.53168 90.3257 6.65206 86.1349 7.49195L78.2812 9.05175Z" fill="#8B2229"/>
<path d="M42.3516 99.9997L86.5559 89.5244L94.8153 51.8553L42.3516 99.9997Z" fill="url(#paint0_linear_3814_84410)" fill-opacity="0.5"/>
<path d="M55.5058 41.5075C55.5058 41.5075 50.4571 35.5383 46.7282 33.9185C44.3523 32.8986 40.8215 32.5087 38.0496 33.7685C33.9578 35.6283 33.5289 40.8476 37.2907 42.9173C38.1816 43.4272 39.3696 43.8472 40.9205 44.1771C49.2361 45.9169 62.9635 49.5165 61.2805 64.0046C61.2805 64.0046 60.3236 77.5928 44.5833 79.1526C41.8115 79.4226 39.0066 79.2426 36.3007 78.6727C32.5719 77.9228 25.9722 76.393 22.7384 74.5632L22.1444 59.0552H23.7283C23.7283 59.0552 26.8632 65.9543 35.7728 69.2839C37.4227 69.8838 39.2376 70.1238 40.9865 69.8838C43.1974 69.5839 45.8043 68.504 46.8602 65.2344C46.8602 65.2344 48.6421 60.465 39.4026 57.8554C32.0109 55.7557 25.0483 53.5959 22.1774 46.5168C20.8245 43.1573 20.5935 39.4378 21.5174 35.8682C22.7384 31.2188 26.2362 24.6797 36.1357 21.86C36.1357 21.86 49.1371 18.6504 58.0467 22.9999L57.6507 41.5075H55.5058Z" fill="url(#paint1_linear_3814_84410)"/>
</g>
<defs>
<filter id="filter0_d_3814_84410" x="0" y="0" width="98.8125" height="108" filterUnits="userSpaceOnUse" color-interpolation-filters="sRGB">
<feFlood flood-opacity="0" result="BackgroundImageFix"/>
<feColorMatrix in="SourceAlpha" type="matrix" values="0 0 0 0 0 0 0 0 0 0 0 0 0 0 0 0 0 0 127 0" result="hardAlpha"/>
<feOffset dy="4"/>
<feGaussianBlur stdDeviation="2"/>
<feComposite in2="hardAlpha" operator="out"/>
<feColorMatrix type="matrix" values="0 0 0 0 0 0 0 0 0 0 0 0 0 0 0 0 0 0 0.05 0"/>
<feBlend mode="normal" in2="BackgroundImageFix" result="effect1_dropShadow_3814_84410"/>
<feBlend mode="normal" in="SourceGraphic" in2="effect1_dropShadow_3814_84410" result="shape"/>
</filter>
<linearGradient id="paint0_linear_3814_84410" x1="65.4105" y1="100.093" x2="68.5651" y2="71.0126" gradientUnits="userSpaceOnUse">
<stop stop-color="#DCF1F3"/>
<stop offset="1" stop-color="#C2C2C9"/>
</linearGradient>
<linearGradient id="paint1_linear_3814_84410" x1="38.5393" y1="85.0187" x2="43.5426" y2="7.50144" gradientUnits="userSpaceOnUse">
<stop stop-color="#DCF1F3"/>
<stop offset="1" stop-color="#C2C2C9"/>
</linearGradient>
</defs>
</svg>
