<svg width="187" height="26" viewBox="0 0 186.81 26" fill="none" xmlns="http://www.w3.org/2000/svg"><path d="M5.89479 22.2333C4.71702 22.2333 3.7059 22.0667 2.86146 21.7333C2.03924 21.4 1.4059 20.8111 0.96146 19.9667C0.517015 19.1222 0.294793 17.9333 0.294793 16.4V15.2333C0.983682 15.2333 1.66146 15.2333 2.32813 15.2333C2.99479 15.2333 3.66146 15.2333 4.32813 15.2333V16.7333C4.32813 17.5556 4.39479 18.1889 4.52813 18.6333C4.66146 19.0556 4.85035 19.3556 5.09479 19.5333C5.33924 19.6889 5.62813 19.7667 5.96146 19.7667C6.47257 19.7667 6.87257 19.5889 7.16146 19.2333C7.47257 18.8556 7.62813 18.1333 7.62813 17.0667C7.62813 16.2444 7.49479 15.6333 7.22813 15.2333C6.98368 14.8111 6.58368 14.4778 6.02813 14.2333C5.47257 13.9667 4.76146 13.6444 3.89479 13.2667C3.11702 12.9333 2.47257 12.5333 1.96146 12.0667C1.45035 11.6 1.07257 11.0111 0.828126 10.3C0.583682 9.58889 0.46146 8.72222 0.46146 7.7C0.46146 6.41111 0.628126 5.36667 0.96146 4.56667C1.31702 3.76667 1.89479 3.18889 2.69479 2.83333C3.51702 2.45556 4.61702 2.26667 5.99479 2.26667C7.77257 2.26667 9.12813 2.65556 10.0615 3.43333C11.017 4.18889 11.4948 5.33333 11.4948 6.86667V9.23333C10.8503 9.23333 10.2059 9.23333 9.56146 9.23333C8.93924 9.23333 8.29479 9.23333 7.62813 9.23333V8.03333C7.62813 7.03333 7.5059 6.33333 7.26146 5.93333C7.03924 5.53333 6.62813 5.33333 6.02813 5.33333C5.45035 5.33333 5.03924 5.51111 4.79479 5.86667C4.55035 6.22222 4.42813 6.8 4.42813 7.6C4.42813 8.33333 4.57257 8.91111 4.86146 9.33333C5.17257 9.73333 5.56146 10.0444 6.02813 10.2667C6.49479 10.4667 6.99479 10.6667 7.52813 10.8667C8.5059 11.2444 9.3059 11.6333 9.92813 12.0333C10.5503 12.4111 11.0059 12.9444 11.2948 13.6333C11.5837 14.3 11.7281 15.2667 11.7281 16.5333C11.7281 17.9556 11.4837 19.0889 10.9948 19.9333C10.5281 20.7556 9.85035 21.3444 8.96146 21.7C8.09479 22.0556 7.07257 22.2333 5.89479 22.2333ZM18.649 22.1C18.1378 22.1 17.6267 22.0556 17.1156 21.9667C16.6045 21.8778 16.149 21.7111 15.749 21.4667C15.349 21.2 15.0267 20.8333 14.7823 20.3667C14.5378 19.8778 14.4156 19.2333 14.4156 18.4333V7.73333H12.849V5.83333L14.749 5.5L15.2823 2.46667H18.2156V5.5H21.349V7.73333H18.2156V17.7667C18.2156 18.2333 18.3045 18.6556 18.4823 19.0333C18.6601 19.3889 19.0601 19.5667 19.6823 19.5667C19.9712 19.5667 20.3045 19.5556 20.6823 19.5333C21.0601 19.4889 21.2823 19.4667 21.349 19.4667V21.7667C21.2823 21.7667 20.9712 21.8222 20.4156 21.9333C19.8823 22.0444 19.2934 22.1 18.649 22.1ZM22.9938 22V5.5H26.7938V22H22.9938ZM24.8938 3.66667C24.4049 3.66667 23.9826 3.5 23.6271 3.16667C23.2715 2.81111 23.0938 2.4 23.0938 1.93333C23.0938 1.44444 23.2715 1.03333 23.6271 0.699999C23.9826 0.366666 24.4049 0.199999 24.8938 0.199999C25.3826 0.199999 25.8049 0.366666 26.1604 0.699999C26.5382 1.03333 26.7271 1.44444 26.7271 1.93333C26.7271 2.4 26.5382 2.81111 26.1604 3.16667C25.8049 3.5 25.3826 3.66667 24.8938 3.66667ZM29.3089 22V5.5H32.5422L32.8755 7.46667C33.0755 6.97778 33.3755 6.58889 33.7755 6.3C34.1755 5.98889 34.5977 5.77778 35.0422 5.66667C35.7755 5.35556 36.5422 5.27778 37.3422 5.43333V8.36667C37.2977 8.34444 37.12 8.32222 36.8089 8.3C36.52 8.25556 36.1866 8.25556 35.8089 8.3C35.4311 8.32222 35.1089 8.41111 34.8422 8.56667C34.2866 8.76667 33.8533 9.11111 33.5422 9.6C33.2533 10.0889 33.1089 10.6778 33.1089 11.3667V22H29.3089ZM38.6839 22V0.933333H42.4839V22H38.6839ZM44.999 22V5.5H48.799V22H44.999ZM46.899 3.66667C46.4101 3.66667 45.9878 3.5 45.6323 3.16667C45.2767 2.81111 45.099 2.4 45.099 1.93333C45.099 1.44444 45.2767 1.03333 45.6323 0.699999C45.9878 0.366666 46.4101 0.199999 46.899 0.199999C47.3878 0.199999 47.8101 0.366666 48.1656 0.699999C48.5434 1.03333 48.7323 1.44444 48.7323 1.93333C48.7323 2.4 48.5434 2.81111 48.1656 3.16667C47.8101 3.5 47.3878 3.66667 46.899 3.66667ZM51.3141 22V5.5H54.5474L54.8807 7.43333C55.0807 6.76667 55.4696 6.22222 56.0474 5.8C56.6474 5.37778 57.303 5.16667 58.0141 5.16667C59.0807 5.16667 59.8807 5.35556 60.4141 5.73333C60.9474 6.08889 61.303 6.6 61.4807 7.26667C61.6807 7.91111 61.7807 8.67778 61.7807 9.56667V22H57.9807V9.8C57.9807 9.53333 57.9696 9.28889 57.9474 9.06667C57.9252 8.82222 57.8585 8.61111 57.7474 8.43333C57.6585 8.25556 57.5252 8.12222 57.3474 8.03333C57.1696 7.92222 56.903 7.86667 56.5474 7.86667C56.2807 7.86667 56.0474 7.92222 55.8474 8.03333C55.6474 8.12222 55.4918 8.23333 55.3807 8.36667C55.2696 8.5 55.1807 8.62222 55.1141 8.73333V22H51.3141ZM68.976 25.9667C68.6649 25.9667 68.2872 25.9556 67.8427 25.9333C67.3983 25.9111 66.9538 25.8778 66.5094 25.8333C66.0872 25.7889 65.7205 25.7444 65.4094 25.7C65.1205 25.6778 64.9427 25.6556 64.876 25.6333V23.6C65.1649 23.6444 65.5983 23.6889 66.176 23.7333C66.7538 23.8 67.2427 23.8333 67.6427 23.8333C67.9983 23.8333 68.3316 23.8 68.6427 23.7333C68.976 23.6889 69.2649 23.5778 69.5094 23.4C69.776 23.2444 69.9872 23 70.1427 22.6667C70.2983 22.3556 70.376 21.9333 70.376 21.4V19.0333C70.2649 19.3 70.0983 19.6 69.876 19.9333C69.676 20.2444 69.376 20.5111 68.976 20.7333C68.576 20.9556 68.0094 21.0667 67.276 21.0667C66.7427 21.0667 66.2538 21.0111 65.8094 20.9C65.3872 20.7667 65.0205 20.5333 64.7094 20.2C64.4205 19.8444 64.1872 19.3444 64.0094 18.7C63.8316 18.0333 63.7427 17.1667 63.7427 16.1V9.36667C63.7427 7.96667 64.0316 6.92222 64.6094 6.23333C65.2094 5.52222 66.1094 5.16667 67.3094 5.16667C68.0205 5.16667 68.5872 5.25556 69.0094 5.43333C69.4538 5.61111 69.8094 5.86667 70.076 6.2C70.3427 6.51111 70.5538 6.87778 70.7094 7.3L70.2094 7.36667L70.776 5.5H74.176V19.5333C74.176 20.3333 74.0983 21.1222 73.9427 21.9C73.8094 22.6556 73.5649 23.3333 73.2094 23.9333C72.8538 24.5556 72.3316 25.0444 71.6427 25.4C70.976 25.7778 70.0872 25.9667 68.976 25.9667ZM68.9094 18.8C69.2872 18.8 69.576 18.7111 69.776 18.5333C69.9983 18.3333 70.1427 18.0667 70.2094 17.7333C70.2983 17.3778 70.3427 17.0111 70.3427 16.6333V8.46667C70.2983 8.35556 70.2205 8.24444 70.1094 8.13333C69.9983 8.02222 69.8427 7.92222 69.6427 7.83333C69.4649 7.74444 69.2094 7.7 68.876 7.7C68.4316 7.7 68.0983 7.83333 67.876 8.1C67.6538 8.34444 67.5427 8.81111 67.5427 9.5V17.1C67.5427 17.4778 67.5872 17.7889 67.676 18.0333C67.7649 18.2556 67.876 18.4222 68.0094 18.5333C68.1649 18.6444 68.3205 18.7222 68.476 18.7667C68.6316 18.7889 68.776 18.8 68.9094 18.8Z" fill="black"/><g transform="translate(80.8471,22.0) scale(0.033333,-0.033333)"><path d="M41.86334228515625 0.0V591.0H252.22735595703125Q311.22747802734375 591.0 341.36383056640625 564.7272338867188Q371.50018310546875 538.4544677734375 371.50018310546875 491.272705078125V388.50006103515625Q371.50018310546875 348.95452880859375 361.6592712402344 314.4317321777344Q351.818359375 279.908935546875 325.6820068359375 258.7952575683594Q299.545654296875 237.68157958984375 251.000244140625 237.68157958984375H163.00048828125V0.0ZM163.00048828125 302.04559326171875H208.40899658203125Q232.4542236328125 302.04559326171875 244.29501342773438 324.81829833984375Q256.13580322265625 347.59100341796875 256.13580322265625 401.0001220703125V440.59051513671875Q256.13580322265625 487.68145751953125 246.3177490234375 507.8405456542969Q236.49969482421875 527.9996337890625 217.13616943359375 527.9996337890625H163.00048828125Z M430.40887451171875 0.0V495.0H527.1367797851562L536.9095458984375 435.77264404296875Q545.818603515625 458.22711181640625 563.8866882324219 471.4316711425781Q581.9547729492188 484.63623046875 602.091064453125 490.40899658203125Q634.5911254882812 504.04547119140625 671.0003662109375 496.95452880859375V409.13580322265625Q669.09130859375 409.77215576171875 655.6139831542969 411.2948913574219Q642.1366577148438 412.817626953125 625.0911254882812 411.6130676269531Q608.0455932617188 410.40850830078125 595.9546508789062 402.59027099609375Q571.000244140625 393.7265625 557.7049255371094 372.0220031738281Q544.4096069335938 350.31744384765625 544.4096069335938 318.77203369140625V0.0Z M860.0001220703125 -7.68182373046875Q809.8637084960938 -7.68182373046875 774.6818237304688 4.295440673828125Q739.4999389648438 16.272705078125 721.363525390625 51.568206787109375Q703.2271118164062 86.86370849609375 703.2271118164062 155.68206787109375V365.86358642578125Q703.2271118164062 442.727294921875 742.3408508300781 473.2045593261719Q781.45458984375 503.68182373046875 860.0001220703125 503.68182373046875Q938.545654296875 503.68182373046875 977.3412170410156 473.5227355957031Q1016.1367797851562 443.3636474609375 1016.1367797851562 365.86358642578125V156.3638916015625Q1016.1367797851562 87.181884765625 998.3185424804688 51.886383056640625Q980.5003051757812 16.59088134765625 945.6365966796875 4.45452880859375Q910.7728881835938 -7.68182373046875 860.0001220703125 -7.68182373046875ZM860.0001220703125 59.7276611328125Q882.3180541992188 59.7276611328125 892.22705078125 72.27301025390625Q902.1360473632812 84.818359375 902.1360473632812 117.7271728515625V377.9091796875Q902.1360473632812 409.22711181640625 892.5452270507812 422.4088134765625Q882.9544067382812 435.59051513671875 860.0001220703125 435.59051513671875Q838.364013671875 435.59051513671875 827.7959289550781 422.8860778808594Q817.2278442382812 410.181640625 817.2278442382812 377.9091796875V117.7271728515625Q817.2278442382812 85.13653564453125 827.7959289550781 72.43209838867188Q838.364013671875 59.7276611328125 860.0001220703125 59.7276611328125Z M1232.2728271484375 -8.31817626953125Q1180.8637084960938 -8.31817626953125 1145.5227355957031 2.840911865234375Q1110.1817626953125 14.0 1092.2044372558594 48.477325439453125Q1074.2271118164062 82.95465087890625 1074.2271118164062 151.68206787109375V369.68170166015625Q1074.2271118164062 446.49993896484375 1113.3408508300781 475.0681457519531Q1152.45458984375 503.6363525390625 1230.6819458007812 503.6363525390625Q1308.5911254882812 503.6363525390625 1347.5457763671875 476.4317932128906Q1386.5004272460938 449.22723388671875 1386.5004272460938 376.818115234375V304.49981689453125H1272.4996948242188V383.31817626953125Q1272.4996948242188 412.0906982421875 1263.7043151855469 424.31787109375Q1254.908935546875 436.5450439453125 1230.6819458007812 436.5450439453125Q1207.4549560546875 436.5450439453125 1197.8414001464844 424.31787109375Q1188.2278442382812 412.0906982421875 1188.2278442382812 383.31817626953125V114.54541015625Q1188.2278442382812 83.86383056640625 1197.8414001464844 71.63665771484375Q1207.4549560546875 59.40948486328125 1231.9546508789062 59.40948486328125Q1254.908935546875 59.40948486328125 1263.7043151855469 71.3184814453125Q1272.4996948242188 83.22747802734375 1272.4996948242188 114.54541015625V200.27294921875H1386.5004272460938V152.3638916015625Q1386.5004272460938 83.59100341796875 1368.6821899414062 48.95458984375Q1350.8639526367188 14.31817626953125 1316.3184204101562 3.0Q1281.7728881835938 -8.31817626953125 1232.2728271484375 -8.31817626953125Z M1598.5910034179688 -8.31817626953125Q1546.8637084960938 -8.31817626953125 1511.5227355957031 3.18182373046875Q1476.1817626953125 14.68182373046875 1458.2044372558594 49.50006103515625Q1440.2271118164062 84.31829833984375 1440.2271118164062 154.40936279296875V376.818115234375Q1440.2271118164062 450.272705078125 1479.3408508300781 477.31817626953125Q1518.45458984375 504.3636474609375 1596.6819458007812 504.3636474609375Q1674.5911254882812 504.3636474609375 1713.5457763671875 477.31817626953125Q1752.5004272460938 450.272705078125 1752.5004272460938 376.818115234375V242.22711181640625H1554.2278442382812V107.40899658203125Q1554.2278442382812 76.7274169921875 1563.8414001464844 64.65933227539062Q1573.4549560546875 52.59124755859375 1597.9546508789062 52.59124755859375Q1620.908935546875 52.59124755859375 1629.7043151855469 64.34115600585938Q1638.4996948242188 76.091064453125 1638.4996948242188 107.40899658203125V185.95465087890625H1752.5004272460938V155.40936279296875Q1752.5004272460938 85.2728271484375 1734.6821899414062 50.13641357421875Q1716.8639526367188 15.0 1682.4775085449219 3.340911865234375Q1648.091064453125 -8.31817626953125 1598.5910034179688 -8.31817626953125ZM1554.2278442382812 293.95465087890625H1638.4996948242188V383.31817626953125Q1638.4996948242188 411.77252197265625 1629.7043151855469 423.8406066894531Q1620.908935546875 435.90869140625 1596.6819458007812 435.90869140625Q1573.4549560546875 435.90869140625 1563.8414001464844 423.8406066894531Q1554.2278442382812 411.77252197265625 1554.2278442382812 383.31817626953125Z M1959.36376953125 -7.3636474609375Q1896.6818237304688 -7.3636474609375 1862.1817626953125 8.227294921875Q1827.6817016601562 23.8182373046875 1814.1134948730469 56.7728271484375Q1800.5452880859375 89.7274169921875 1800.5452880859375 140.13653564453125V178.2728271484375H1915.2278442382812V114.3636474609375Q1915.2278442382812 82.27294921875 1924.1141052246094 68.43209838867188Q1933.0003662109375 54.59124755859375 1958.0001220703125 54.59124755859375Q1980.0908203125 54.59124755859375 1989.7952575683594 67.20480346679688Q1999.4996948242188 79.818359375 1999.4996948242188 104.818115234375V142.86370849609375Q1999.4996948242188 166.9091796875 1990.4314880371094 180.79550170898438Q1981.36328125 194.68182373046875 1962.2041931152344 204.52267456054688Q1943.0451049804688 214.363525390625 1914.2724609375 225.95440673828125Q1887.4998168945312 236.86346435546875 1864.0680236816406 250.8179931640625Q1840.63623046875 264.77252197265625 1826.13623046875 287.77252197265625Q1811.63623046875 310.77252197265625 1811.63623046875 346.77252197265625V375.72705078125Q1811.63623046875 438.4544677734375 1845.9544677734375 470.72723388671875Q1880.272705078125 503.0 1968.8638305664062 503.0Q2027.9548950195312 503.0 2060.9549560546875 488.09088134765625Q2093.9550170898438 473.1817626953125 2107.6368408203125 441.7499084472656Q2121.3186645507812 410.31805419921875 2121.3186645507812 361.908935546875V325.4544677734375H2010.72705078125V380.727294921875Q2010.72705078125 414.0906982421875 2001.363525390625 427.5679016113281Q1992.0 441.04510498046875 1969.545654296875 441.04510498046875Q1945.2277221679688 441.04510498046875 1936.7959899902344 427.9770202636719Q1928.3642578125 414.908935546875 1928.3642578125 395.6363525390625V358.59075927734375Q1928.3642578125 333.7271728515625 1941.9097290039062 319.36358642578125Q1955.4552001953125 305.0 1977.4097290039062 296.63641357421875Q1999.3642578125 288.2728271484375 2023.727783203125 278.40924072265625Q2049.9550170898438 268.818359375 2072.1141052246094 255.50018310546875Q2094.273193359375 242.1820068359375 2107.795928955078 220.045654296875Q2121.3186645507812 197.9093017578125 2121.3186645507812 161.04571533203125V131.091064453125Q2121.3186645507812 85.9091796875 2106.568634033203 54.977325439453125Q2091.818603515625 24.04547119140625 2056.613983154297 8.340911865234375Q2021.4093627929688 -7.3636474609375 1959.36376953125 -7.3636474609375Z M2328.36376953125 -7.3636474609375Q2265.6818237304688 -7.3636474609375 2231.1817626953125 8.227294921875Q2196.6817016601562 23.8182373046875 2183.113494873047 56.7728271484375Q2169.5452880859375 89.7274169921875 2169.5452880859375 140.13653564453125V178.2728271484375H2284.2278442382812V114.3636474609375Q2284.2278442382812 82.27294921875 2293.1141052246094 68.43209838867188Q2302.0003662109375 54.59124755859375 2327.0001220703125 54.59124755859375Q2349.0908203125 54.59124755859375 2358.7952575683594 67.20480346679688Q2368.4996948242188 79.818359375 2368.4996948242188 104.818115234375V142.86370849609375Q2368.4996948242188 166.9091796875 2359.4314880371094 180.79550170898438Q2350.36328125 194.68182373046875 2331.2041931152344 204.52267456054688Q2312.0451049804688 214.363525390625 2283.2724609375 225.95440673828125Q2256.4998168945312 236.86346435546875 2233.0680236816406 250.8179931640625Q2209.63623046875 264.77252197265625 2195.13623046875 287.77252197265625Q2180.63623046875 310.77252197265625 2180.63623046875 346.77252197265625V375.72705078125Q2180.63623046875 438.4544677734375 2214.9544677734375 470.72723388671875Q2249.272705078125 503.0 2337.8638305664062 503.0Q2396.9548950195312 503.0 2429.9549560546875 488.09088134765625Q2462.9550170898438 473.1817626953125 2476.6368408203125 441.7499084472656Q2490.3186645507812 410.31805419921875 2490.3186645507812 361.908935546875V325.4544677734375H2379.72705078125V380.727294921875Q2379.72705078125 414.0906982421875 2370.363525390625 427.5679016113281Q2361.0 441.04510498046875 2338.545654296875 441.04510498046875Q2314.2277221679688 441.04510498046875 2305.7959899902344 427.9770202636719Q2297.3642578125 414.908935546875 2297.3642578125 395.6363525390625V358.59075927734375Q2297.3642578125 333.7271728515625 2310.9097290039062 319.36358642578125Q2324.4552001953125 305.0 2346.4097290039062 296.63641357421875Q2368.3642578125 288.2728271484375 2392.727783203125 278.40924072265625Q2418.9550170898438 268.818359375 2441.1141052246094 255.50018310546875Q2463.273193359375 242.1820068359375 2476.795928955078 220.045654296875Q2490.3186645507812 197.9093017578125 2490.3186645507812 161.04571533203125V131.091064453125Q2490.3186645507812 85.9091796875 2475.568634033203 54.977325439453125Q2460.818603515625 24.04547119140625 2425.613983154297 8.340911865234375Q2390.4093627929688 -7.3636474609375 2328.36376953125 -7.3636474609375Z M2701.0001220703125 -7.68182373046875Q2650.8637084960938 -7.68182373046875 2615.6818237304688 4.295440673828125Q2580.4999389648438 16.272705078125 2562.363525390625 51.568206787109375Q2544.2271118164062 86.86370849609375 2544.2271118164062 155.68206787109375V365.86358642578125Q2544.2271118164062 442.727294921875 2583.340850830078 473.2045593261719Q2622.45458984375 503.68182373046875 2701.0001220703125 503.68182373046875Q2779.545654296875 503.68182373046875 2818.3412170410156 473.5227355957031Q2857.1367797851562 443.3636474609375 2857.1367797851562 365.86358642578125V156.3638916015625Q2857.1367797851562 87.181884765625 2839.3185424804688 51.886383056640625Q2821.5003051757812 16.59088134765625 2786.6365966796875 4.45452880859375Q2751.7728881835938 -7.68182373046875 2701.0001220703125 -7.68182373046875ZM2701.0001220703125 59.7276611328125Q2723.3180541992188 59.7276611328125 2733.22705078125 72.27301025390625Q2743.1360473632812 84.818359375 2743.1360473632812 117.7271728515625V377.9091796875Q2743.1360473632812 409.22711181640625 2733.5452270507812 422.4088134765625Q2723.9544067382812 435.59051513671875 2701.0001220703125 435.59051513671875Q2679.364013671875 435.59051513671875 2668.795928955078 422.8860778808594Q2658.2278442382812 410.181640625 2658.2278442382812 377.9091796875V117.7271728515625Q2658.2278442382812 85.13653564453125 2668.795928955078 72.43209838867188Q2679.364013671875 59.7276611328125 2701.0001220703125 59.7276611328125Z M2923.4088745117188 0.0V495.0H3020.1367797851562L3029.9095458984375 435.77264404296875Q3038.818603515625 458.22711181640625 3056.886688232422 471.4316711425781Q3074.9547729492188 484.63623046875 3095.091064453125 490.40899658203125Q3127.5911254882812 504.04547119140625 3164.0003662109375 496.95452880859375V409.13580322265625Q3162.09130859375 409.77215576171875 3148.613983154297 411.2948913574219Q3135.1366577148438 412.817626953125 3118.0911254882812 411.6130676269531Q3101.0455932617188 410.40850830078125 3088.9546508789062 402.59027099609375Q3064.000244140625 393.7265625 3050.7049255371094 372.0220031738281Q3037.4096069335938 350.31744384765625 3037.4096069335938 318.77203369140625V0.0Z" fill="black"/></g></svg>