<svg xmlns="http://www.w3.org/2000/svg" width="256" height="256" viewBox="0 0 100 100"><rect width="100" height="100" rx="50" fill="#000000"></rect><path fill="#ffffff" d="M22.76 53.83L18.32 53.83L18.32 63.29Q18.06 63.38 17.62 63.49Q17.18 63.60 16.65 63.60L16.65 63.60Q14.71 63.60 14.71 61.97L14.71 61.97L14.71 38.56Q14.71 37.86 15.06 37.48Q15.42 37.11 16.16 36.89L16.16 36.89Q17.44 36.49 19.27 36.32Q21.09 36.14 22.81 36.14L22.81 36.14Q28.40 36.14 30.97 38.49Q33.54 40.85 33.54 44.85L33.54 44.85Q33.54 48.94 30.90 51.39Q28.26 53.83 22.76 53.83L22.76 53.83ZM18.28 50.84L22.54 50.84Q26.06 50.84 28.00 49.38Q29.94 47.93 29.94 44.90L29.94 44.90Q29.94 41.90 28.07 40.52Q26.20 39.13 22.72 39.13L22.72 39.13Q21.53 39.13 20.37 39.24Q19.20 39.35 18.28 39.53L18.28 39.53L18.28 50.84ZM58.40 49.69L58.40 49.69Q58.40 46.88 57.55 44.87Q56.69 42.87 55.21 41.60Q53.74 40.32 51.78 39.73Q49.82 39.13 47.58 39.13L47.58 39.13Q46.17 39.13 45.14 39.22Q44.10 39.31 43.22 39.48L43.22 39.48L43.22 60.43Q44.28 60.69 45.49 60.78Q46.70 60.87 47.98 60.87L47.98 60.87Q53.17 60.87 55.79 58.05Q58.40 55.24 58.40 49.69ZM62.06 49.69L62.06 49.69Q62.06 53.30 61.07 55.96Q60.08 58.62 58.25 60.38Q56.42 62.14 53.83 63.00Q51.23 63.86 48.02 63.86L48.02 63.86Q46.61 63.86 44.85 63.75Q43.09 63.64 41.51 63.16L41.51 63.16Q39.66 62.58 39.66 61.13L39.66 61.13L39.66 38.52Q39.66 37.81 40.01 37.44Q40.36 37.06 41.11 36.84L41.11 36.84Q42.48 36.40 44.19 36.27Q45.91 36.14 47.62 36.14L47.62 36.14Q50.84 36.14 53.50 37.00Q56.16 37.86 58.05 39.55Q59.94 41.24 61 43.77Q62.06 46.30 62.06 49.69ZM70.28 36.62L84.89 36.62Q85.02 36.84 85.16 37.22Q85.29 37.59 85.29 38.03L85.29 38.03Q85.29 38.78 84.94 39.22Q84.58 39.66 83.92 39.66L83.92 39.66L71.96 39.66L71.96 48.81L83.35 48.81Q83.48 49.03 83.62 49.41Q83.75 49.78 83.75 50.22L83.75 50.22Q83.75 50.97 83.40 51.41Q83.04 51.85 82.38 51.85L82.38 51.85L71.96 51.85L71.96 63.33Q71.74 63.42 71.27 63.51Q70.81 63.60 70.33 63.60L70.33 63.60Q68.35 63.60 68.35 62.01L68.35 62.01L68.35 38.56Q68.35 37.68 68.88 37.15Q69.40 36.62 70.28 36.62L70.28 36.62Z"></path></svg>