<?xml version="1.0" encoding="UTF-8" standalone="no"?>
<!-- Generator: Adobe Illustrator 19.0.0, SVG Export Plug-In . SVG Version: 6.00 Build 0)  -->

<svg
   version="1.1"
   id="Layer_1"
   x="0px"
   y="0px"
   viewBox="0 0 512 512"
   style="enable-background:new 0 0 512 512;"
   xml:space="preserve"
   sodipodi:docname="512_512.svg"
   inkscape:version="1.2.2 (732a01da63, 2022-12-09)"
   xmlns:inkscape="http://www.inkscape.org/namespaces/inkscape"
   xmlns:sodipodi="http://sodipodi.sourceforge.net/DTD/sodipodi-0.dtd"
   xmlns="http://www.w3.org/2000/svg"
   xmlns:svg="http://www.w3.org/2000/svg"><defs
   id="defs173">
		
		
		<linearGradient
   id="XMLID_5_"
   gradientUnits="userSpaceOnUse"
   x1="304.496"
   y1="422.9102"
   x2="316.036"
   y2="326.2626">
			<stop
   offset="0"
   style="stop-color:#DCF1F3"
   id="stop156" />
			<stop
   offset="1"
   style="stop-color:#C2C2C9"
   id="stop158" />
		</linearGradient>
		
	</defs><sodipodi:namedview
   id="namedview171"
   pagecolor="#ffffff"
   bordercolor="#000000"
   borderopacity="0.25"
   inkscape:showpageshadow="2"
   inkscape:pageopacity="0.0"
   inkscape:pagecheckerboard="0"
   inkscape:deskcolor="#d1d1d1"
   showgrid="false"
   inkscape:zoom="2.8284271"
   inkscape:cx="53.740115"
   inkscape:cy="381.48411"
   inkscape:window-width="3840"
   inkscape:window-height="2054"
   inkscape:window-x="2869"
   inkscape:window-y="-11"
   inkscape:window-maximized="1"
   inkscape:current-layer="XMLID_4_" />
<style
   type="text/css"
   id="style150">
	.st0{fill:#FFFFFF;}
	.st1{fill:#C02223;}
	.st2{fill:#882425;}
	.st3{fill:url(#XMLID_5_);}
	.st4{fill:url(#XMLID_7_);}
</style>

<g
   id="XMLID_4_">
	<path
   id="XMLID_131_"
   class="st1"
   d="M 318.6,89.8 148,127.4 c -17.3,3.8 -29.6,19.1 -29.6,36.8 v 216.7 c 0,15.4 11.5,28.3 26.7,30.1 l 89.5,11.7 78.82245,-78.47546 L 393.4,262.3 392,138.3 C 391.8,123.2 377.8,112 363.1,115.2 l -19.8,4.3 0.1,-9.4 C 343.6,96.9 331.4,87 318.6,89.8 Z"
   sodipodi:nodetypes="ccssccccccccc" /><path
   id="XMLID_117_"
   class="st2"
   d="m 343.5,119.5 v 196.6 l 50.1,-53.9 -1.4,-128.1 c -0.1,-13 -12.2,-22.6 -24.9,-19.8 z" /><polygon
   id="XMLID_18_"
   class="st3"
   points="368.5,387.7 393.5,262.2 234.7,422.6 "
   style="fill:url(#XMLID_5_)"
   transform="matrix(1.0011878,0,0,1.0006346,-0.36580655,-0.17028173)" />
	<linearGradient
   id="XMLID_7_"
   gradientUnits="userSpaceOnUse"
   x1="223.0838"
   y1="372.7559"
   x2="241.4174"
   y2="114.557">
		<stop
   offset="0"
   style="stop-color:#DCF1F3"
   id="stop163" />
		<stop
   offset="1"
   style="stop-color:#C2C2C9"
   id="stop165" />
	</linearGradient>
	<path
   id="XMLID_6_"
   class="st4"
   d="M274.5,227.7c0,0-15.3-19.9-26.6-25.3c-7.2-3.4-17.9-4.7-26.3-0.5c-12.4,6.2-13.7,23.6-2.3,30.5   c2.7,1.7,6.3,3.1,11,4.2c25.2,5.8,66.8,17.8,61.7,66.1c0,0-2.9,45.3-50.6,50.5c-8.4,0.9-16.9,0.3-25.1-1.6   c-11.3-2.5-31.3-7.6-41.1-13.7l-1.8-51.7l4.8,0c0,0,9.5,23,36.5,34.1c5,2,10.5,2.8,15.8,2c6.7-1,14.6-4.6,17.8-15.5   c0,0,5.4-15.9-22.6-24.6c-22.4-7-43.5-14.2-52.2-37.8c-4.1-11.2-4.8-23.6-2-35.5c3.7-15.5,14.3-37.3,44.3-46.7   c0,0,39.4-10.7,66.4,3.8l-1.2,61.7L274.5,227.7z" />
</g>
</svg>
