<?xml version="1.0" standalone="no"?>
<!DOCTYPE svg PUBLIC "-//W3C//DTD SVG 20010904//EN"
 "http://www.w3.org/TR/2001/REC-SVG-20010904/DTD/svg10.dtd">
<svg version="1.0" xmlns="http://www.w3.org/2000/svg"
 width="700.000000pt" height="700.000000pt" viewBox="0 0 700.000000 700.000000"
 preserveAspectRatio="xMidYMid meet">
<metadata>
Created by potrace 1.14, written by Peter Selinger 2001-2017
</metadata>
<g transform="translate(0.000000,700.000000) scale(0.100000,-0.100000)"
fill="#000000" stroke="none">
<path d="M3186 5515 c-653 -145 -1209 -271 -1235 -280 -158 -59 -289 -215
-321 -380 -8 -43 -10 -488 -8 -1610 l3 -1550 22 -55 c42 -101 135 -193 235
-232 37 -14 239 -45 688 -104 l635 -84 932 938 c513 515 1003 1010 1089 1100
l157 162 -11 902 -11 901 -31 64 c-23 47 -45 74 -77 96 -95 68 -157 71 -386
22 -89 -19 -165 -35 -169 -35 -5 0 -8 44 -8 98 0 81 -4 105 -24 147 -44 95
-156 167 -255 164 -20 0 -571 -119 -1225 -264z m402 -700 c51 -8 132 -30 180
-48 l87 -32 -3 -215 c-1 -118 -5 -308 -8 -422 l-7 -208 -41 0 c-41 0 -45 3
-116 85 -173 202 -286 279 -438 299 -62 8 -161 -8 -211 -34 -142 -73 -184
-260 -84 -371 50 -55 89 -73 262 -119 301 -80 451 -152 583 -278 182 -174 248
-443 177 -725 -69 -275 -257 -471 -525 -549 -69 -20 -101 -23 -249 -23 -151 0
-183 4 -282 28 -260 63 -484 143 -508 181 -9 15 -15 93 -19 271 -4 138 -9 292
-13 343 l-6 92 35 0 c30 0 37 -5 52 -37 76 -160 280 -346 466 -425 66 -28 86
-32 170 -33 114 0 179 24 236 87 102 113 97 240 -15 340 -60 54 -142 94 -291
143 -259 84 -388 151 -495 260 -233 233 -267 635 -82 965 103 184 332 351 547
400 183 41 435 51 598 25z"/>
</g>
</svg>
