<?xml version="1.0" standalone="no"?>
<!DOCTYPE svg PUBLIC "-//W3C//DTD SVG 20010904//EN"
 "http://www.w3.org/TR/2001/REC-SVG-20010904/DTD/svg10.dtd">
<svg version="1.0" xmlns="http://www.w3.org/2000/svg"
 width="752.000000pt" height="752.000000pt" viewBox="0 0 752.000000 752.000000"
 preserveAspectRatio="xMidYMid meet">
<metadata>
Created by potrace 1.14, written by Peter Selinger 2001-2017
</metadata>
<g transform="translate(0.000000,752.000000) scale(0.100000,-0.100000)"
fill="#000000" stroke="none">
<path d="M5025 7049 c-87 -21 -1141 -257 -2770 -620 -566 -126 -1057 -239
-1090 -250 -153 -56 -253 -125 -297 -206 -62 -113 -58 67 -58 -2629 l0 -2462
22 -5 c73 -19 1640 -347 1655 -347 9 0 58 39 107 88 596 575 1106 1069 1611
1556 336 324 725 700 865 836 140 135 383 369 540 520 157 151 390 377 518
502 l233 228 -23 33 c-12 17 -89 122 -170 231 l-148 200 0 944 c0 894 -1 943
-17 938 -40 -11 -853 -186 -868 -186 -13 0 -15 38 -15 325 0 179 -3 325 -7
324 -5 -1 -44 -10 -88 -20z m-2205 -1513 c167 -23 343 -73 504 -145 l66 -30 0
-536 0 -535 -40 0 c-40 0 -46 6 -263 224 -211 212 -226 226 -307 265 -142 68
-274 75 -427 21 -141 -49 -213 -161 -213 -329 0 -89 16 -124 82 -172 91 -66
206 -115 499 -212 228 -76 340 -126 458 -204 157 -105 282 -253 366 -436 59
-128 70 -203 69 -452 -1 -213 -2 -224 -31 -337 -33 -123 -89 -255 -144 -335
-43 -63 -169 -194 -240 -248 -172 -134 -388 -199 -705 -212 -260 -11 -473 34
-858 179 l-246 93 3 540 2 540 43 3 c34 3 43 0 48 -15 48 -159 263 -392 514
-560 159 -107 273 -152 401 -160 154 -10 269 42 353 160 74 104 102 196 90
295 -18 145 -192 275 -511 381 -375 125 -541 216 -706 386 -198 203 -273 411
-271 760 l0 170 38 110 c77 223 147 338 285 468 158 148 283 219 478 268 252
64 465 81 663 55z"/>
<path d="M5633 2297 c-267 -688 -370 -952 -393 -1002 l-27 -60 -114 -44 c-63
-24 -127 -50 -144 -57 -16 -7 -104 -43 -195 -79 -91 -36 -174 -70 -185 -75
-11 -5 -46 -19 -77 -30 -32 -12 -58 -26 -58 -31 0 -6 -4 -8 -10 -4 -5 3 -17 1
-27 -4 -25 -14 -169 -44 -1248 -256 -324 -64 -599 -119 -610 -122 -17 -5 -15
-8 12 -15 63 -17 633 -117 803 -142 293 -42 276 -42 471 -3 96 20 226 45 289
57 63 12 282 55 485 95 204 40 422 83 485 95 63 12 237 46 385 75 231 46 390
77 765 149 l65 13 -50 11 c-27 6 -192 34 -365 62 -173 28 -331 54 -350 59 -41
9 -41 -12 1 226 30 175 61 355 124 720 20 116 42 235 49 266 12 53 11 61 -12
118 -13 33 -27 61 -31 61 -3 0 -20 -37 -38 -83z"/>
<path d="M6404 928 c4 -23 8 -44 10 -45 2 -2 44 4 94 14 51 9 89 20 84 24 -8
9 -158 49 -180 49 -11 0 -13 -9 -8 -42z"/>
</g>
</svg>
