<svg xmlns="http://www.w3.org/2000/svg" fill="none" viewBox="0 0 82 92"><g filter="url(#a)" opacity=".2"><path fill="#ff4b4b" d="M56.368.558 9.08 10.03c-4.796.96-8.205 4.815-8.205 9.274v54.601c0 3.88 3.188 7.13 7.4 7.585l24.81 2.948 21.848-19.774L77.1 44.022l-.388-31.244c-.055-3.805-3.936-6.627-8.01-5.82L63.214 8.04l.028-2.369c.056-3.325-3.326-5.82-6.874-5.114"/><path fill="#545454" d="M63.269 8.04v49.537l13.887-13.58-.388-32.278c-.028-3.275-3.382-5.694-6.902-4.989z"/><path fill="#d0dbdc" d="m33.087 84.438 37.132-8.8 6.938-31.642z"/><path fill="#fff" d="M44.143 35.305s-4.24-5.014-7.373-6.375c-1.996-.857-4.962-1.184-7.29-.126-3.437 1.562-3.797 5.947-.637 7.685.748.428 1.746.781 3.049 1.058 6.985 1.462 18.516 4.485 17.102 16.655 0 0-.804 11.415-14.026 12.725a23 23 0 0 1-6.957-.403c-3.132-.63-8.676-1.915-11.392-3.452l-.5-13.027h1.331s2.633 5.795 10.117 8.592c1.386.504 2.91.706 4.38.504 1.857-.252 4.047-1.159 4.934-3.905 0 0 1.497-4.007-6.265-6.199-6.209-1.764-12.057-3.578-14.469-9.524-1.136-2.822-1.33-5.947-.554-8.945 1.026-3.906 3.964-9.399 12.28-11.767 0 0 10.92-2.696 18.405.958l-.333 15.546z"/></g><defs><filter id="a" width="81.094" height="91.875" x="0" y="0" color-interpolation-filters="sRGB" filterUnits="userSpaceOnUse"><feFlood flood-opacity="0" result="BackgroundImageFix"/><feColorMatrix in="SourceAlpha" result="hardAlpha" values="0 0 0 0 0 0 0 0 0 0 0 0 0 0 0 0 0 0 127 0"/><feOffset dy=".438"/><feGaussianBlur stdDeviation=".438"/><feColorMatrix values="0 0 0 0 0 0 0 0 0 0 0 0 0 0 0 0 0 0 0.1 0"/><feBlend in2="BackgroundImageFix" result="effect1_dropShadow_3933_98709"/><feColorMatrix in="SourceAlpha" result="hardAlpha" values="0 0 0 0 0 0 0 0 0 0 0 0 0 0 0 0 0 0 127 0"/><feOffset dx=".438" dy="1.313"/><feGaussianBlur stdDeviation=".656"/><feColorMatrix values="0 0 0 0 0 0 0 0 0 0 0 0 0 0 0 0 0 0 0.09 0"/><feBlend in2="effect1_dropShadow_3933_98709" result="effect2_dropShadow_3933_98709"/><feColorMatrix in="SourceAlpha" result="hardAlpha" values="0 0 0 0 0 0 0 0 0 0 0 0 0 0 0 0 0 0 127 0"/><feOffset dx=".875" dy="3.063"/><feGaussianBlur stdDeviation=".875"/><feColorMatrix values="0 0 0 0 0 0 0 0 0 0 0 0 0 0 0 0 0 0 0.05 0"/><feBlend in2="effect2_dropShadow_3933_98709" result="effect3_dropShadow_3933_98709"/><feColorMatrix in="SourceAlpha" result="hardAlpha" values="0 0 0 0 0 0 0 0 0 0 0 0 0 0 0 0 0 0 127 0"/><feOffset dx="1.75" dy="5.25"/><feGaussianBlur stdDeviation="1.094"/><feColorMatrix values="0 0 0 0 0 0 0 0 0 0 0 0 0 0 0 0 0 0 0.01 0"/><feBlend in2="effect3_dropShadow_3933_98709" result="effect4_dropShadow_3933_98709"/><feBlend in="SourceGraphic" in2="effect4_dropShadow_3933_98709" result="shape"/></filter></defs></svg>