<?xml version="1.0" encoding="UTF-8"?>
<svg xmlns="http://www.w3.org/2000/svg" version="1.1" xmlns:xlink="http://www.w3.org/1999/xlink" viewBox="0 0 24 24">
        <symbol id="icon-split-chapters" viewBox="0 0 24 24">
          <g id="Layer_2" data-name="Layer 2">
    <g id="Layer_1-2" data-name="Layer 1">
      <g>
        <path d="M17.632,9.18527v5.44l1.94-1.16,1.94,1.16v-5.44Z" style="fill: currentColor"/>
        <path d="M18.09072,20.16555l-6.42466-6.42466L9.50921,15.89774a2.45775,2.45775,0,0,1,.25239.73425,4.481,4.481,0,0,1,.06884.78013A3.53516,3.53516,0,0,1,8.752,20.00493a3.53516,3.53516,0,0,1-2.5928,1.07843A3.53516,3.53516,0,0,1,3.5664,20.00493a3.65608,3.65608,0,0,1,0-5.18561,3.53516,3.53516,0,0,1,2.59281-1.07843,4.481,4.481,0,0,1,.78013.06884,2.45775,2.45775,0,0,1,.73425.25239l2.15685-2.15685L7.67359,9.74842a2.45749,2.45749,0,0,1-.73425.2524,4.481,4.481,0,0,1-.78013.06884A3.53516,3.53516,0,0,1,3.5664,8.99123,3.53516,3.53516,0,0,1,2.488,6.39842,3.53516,3.53516,0,0,1,3.5664,3.80561,3.53515,3.53515,0,0,1,6.15921,2.72719,3.53515,3.53515,0,0,1,8.752,3.80561,3.53516,3.53516,0,0,1,9.83044,6.39842a4.48109,4.48109,0,0,1-.06884.78014,2.45784,2.45784,0,0,1-.25239.73425L20.84414,19.24774v.91781Zm-3.67124-9.17809L12.58386,9.15185,18.09072,3.645h2.75342v.91781ZM6.15921,8.234A1.841,1.841,0,0,0,7.99482,6.39842,1.841,1.841,0,0,0,6.15921,4.56281,1.841,1.841,0,0,0,4.32359,6.39842,1.841,1.841,0,0,0,6.15921,8.234Zm5.50685,4.13014a.47051.47051,0,1,0-.32124-.13767A.44026.44026,0,0,0,11.66606,12.36418ZM6.15921,19.24774a1.83562,1.83562,0,1,0-1.29641-3.132,1.83562,1.83562,0,0,0,1.29641,3.132Z" style="fill: currentColor"/>
      </g>
      <rect width="24" height="24" style="fill: none"/>
    </g>
  </g>
    </symbol>
</svg>
