<svg viewBox="0 0 44.39828 40.248" xmlns="http://www.w3.org/2000/svg" style="max-height: 500px" width="300" height="300"><path d="M5.795 9.869 11.511.003 34.53 0l5.685 9.964.007 19.932-5.691 9.958-23.012.008-5.782-9.965z" fill="#4d4d4d"/><path d="M5.738 29.894h10.374l-5.698-10.041 4.634-9.982-9.252-.002L0 19.934" fill="#ededed"/><path d="M19.258 29.894h7.583l6.705-9.773-6.588-10.156h-8.92l-5.373 9.814z" fill="#e0e0e0"/><path d="m0 19.933 5.738 9.964h10.375l-5.636-9.93z" fill="#acacac"/><path d="m12.774 19.935 6.485 9.962h7.582l6.6-9.958z" fill="#9e9e9e"/><path d="m15.342 19.94-1.957.57-1.878-.571 7.667-13.29 1.918 3.318" fill="#00b8e3"/><path d="m21.084 29.894-1.908 3.332-5.093-5.487-2.58-7.797v-.004h3.838" fill="#33c6e9"/><path d="M11.508 19.939h-.004v.003l-1.917 3.322-1.925-3.307 1.952-3.386 5.728-9.92h3.834" fill="#008aaa"/><path d="M32.604 29.894h11.612l-.007-19.93H32.604Z" fill="#d4d4d4"/><path d="M32.604 19.966v9.93h11.591v-9.93z" fill="#919191"/><path d="M19.178 33.23h-3.837l-5.754-9.967 1.917-3.32z" fill="#00b8e3"/><path d="M34.519 19.939 26.85 33.227c-.705-1.036-1.913-3.33-1.913-3.33l5.753-9.96z" fill="#008aaa"/><path d="m30.68 33.227-3.83-.001 7.67-13.288 1.916-3.318 1.922 3.34m-3.839-.021h-3.828l-5.755-9.973 1.905-3.314 4.658 5.922z" fill="#00b8e3"/><path d="M36.436 16.618v.003l-1.917 3.318-7.677-13.286 3.841.002z" fill="#33c6e9"/><path d="M175.972 9.98a.193.193 0 0 0-.195.196v19.503c0 .106.086.195.195.195h4.049c.106 0 .195-.09.195-.195V24.31c0-.046.016-.093.05-.13l.181-.204 1.6-1.782a.196.196 0 0 1 .302.016l1.528 2.06 2.735 3.68 1.002 1.347.367.497c.04.05.096.08.159.08h4.7a.2.2 0 0 0 .162-.312l-.973-1.356-1.389-1.954c-.413-.576-.856-1.198-1.333-1.866l-.215-.304-1.76-2.48a1565.7 1565.7 0 0 0-1.934-2.706.19.19 0 0 1 .016-.241l1.551-1.724 3.725-4.14 2.239-2.487a.218.218 0 0 0 .05-.123.195.195 0 0 0-.196-.201h-4.97a.195.195 0 0 0-.143.062l-1.558 1.694-3.324 3.614-2.235 2.428a.194.194 0 0 1-.338-.132v-7.471a.195.195 0 0 0-.195-.195Z" fill="#626262"/><path d="M161.562 9.98a.198.198 0 0 0-.178.12l-5.213 12.065-.003.003-.007.013-.003.01-.674 1.565-.04.096-.087.195h.001l-.073.166v.003l-2.027 4.693-.298.69a.196.196 0 0 0 .178.275h4.3a.196.196 0 0 0 .175-.112c0-.004.004-.004.004-.007l1.498-3.485.248-.576a.199.199 0 0 1 .182-.12h8.08a.19.19 0 0 1 .178.12l1.664 3.866 1.865-6.618-1.499-3.47-1.339-3.098-2.712-6.273a.191.191 0 0 0-.179-.12h-2.526zm7.905 19.58v.003l.086.192c.03.073.099.12.178.12h4.3a.197.197 0 0 0 .179-.276l-.04-.09-2.838-6.567zm-5.87-13.362c.074 0 .147.04.181.117l.943 2.2.952 2.225.285.664a.194.194 0 0 1-.179.272h-4.389a.194.194 0 0 1-.178-.272l.516-1.19 1.69-3.9a.195.195 0 0 1 .18-.116z" fill="#6f6f6f"/><path d="M143.452 9.524c-.826 0-1.617.076-2.368.235v.004-.004h-.003a9.78 9.78 0 0 0-3.556 1.488 10.59 10.59 0 0 0-1.497 1.224c-1.486 1.453-2.428 3.197-2.815 5.176l-.002.003-.014.076-.005.023-.042.225v-.001l-.003.012v.006l-.01.085v.009a11.29 11.29 0 0 0-.126 1.715c0 2.63.816 4.872 2.45 6.727.175.206.367.404.565.599.506.496 1.043.93 1.608 1.3 1.68 1.098 3.619 1.647 5.818 1.647.245 0 .486-.006.724-.023 2.13-.12 4.001-.784 5.615-1.991a10.44 10.44 0 0 0 1.089-.933l.01-.01a9.983 9.983 0 0 0 1.922-2.583c.148-.288.28-.582.396-.887.46-1.174.688-2.457.688-3.845 0-.374-.016-.742-.05-1.1v-.006a9.841 9.841 0 0 0-.783-3.1c-.5-1.15-1.227-2.191-2.183-3.124-.397-.39-.814-.74-1.25-1.052-1.76-1.263-3.817-1.895-6.178-1.895zm.017 3.873c1.66 0 3.059.625 4.197 1.875.062.067.122.136.175.205 1.022 1.214 1.531 2.66 1.531 4.336 0 1.17-.248 2.223-.744 3.162a6.456 6.456 0 0 1-1.138 1.545 5.658 5.658 0 0 1-1.382 1.048c-.79.423-1.67.635-2.64.635a5.57 5.57 0 0 1-2.56-.592 5.46 5.46 0 0 1-1.12-.77 5.668 5.668 0 0 1-.516-.503c-1.14-1.243-1.71-2.751-1.71-4.524 0-.053 0-.103.003-.156.03-1.707.599-3.168 1.707-4.386.83-.912 1.802-1.495 2.913-1.74a6.03 6.03 0 0 1 1.284-.135z" fill="#7d7d7d"/><path d="M120.252 9.98a.193.193 0 0 0-.195.196v19.503c0 .106.086.195.195.195h12.528c.11 0 .196-.09.196-.195v-3.57a.195.195 0 0 0-.196-.194h-8.09a.192.192 0 0 1-.194-.191V10.176a.19.19 0 0 0-.113-.176.174.174 0 0 0-.083-.02h-2.242z" fill="#888"/><path d="M109.792 9.525c-2.923 0-5.394.989-7.415 2.96-.367.36-.7.738-1.002 1.13v.004c-1.352 1.756-2.027 3.84-2.027 6.25 0 1.377.215 2.64.649 3.794l.006-.002-.005.003c.254.695.592 1.336.999 1.948v.003c.003 0 .003.003.003.003a9.828 9.828 0 0 0 1.323 1.58 10.01 10.01 0 0 0 1.984 1.512h.003a9.831 9.831 0 0 0 .953.484h.007l.003.003h.003c1.37.602 2.907.903 4.617.903.503 0 .996-.037 1.475-.106h.01c.308-.043.612-.102.913-.175 1.683-.404 3.225-1.257 4.63-2.557v-.002l.001.002c.281-.258.559-.54.83-.837a.199.199 0 0 0-.007-.27l-2.566-2.643a.19.19 0 0 0-.172-.057.212.212 0 0 0-.116.07c-.685.81-1.465 1.419-2.338 1.822-.867.4-1.826.6-2.874.6-.718 0-1.39-.113-2.011-.341a5.641 5.641 0 0 1-2.057-1.34 5.433 5.433 0 0 1-1.3-2.066h-.007l.007-.001c-.255-.715-.38-1.508-.38-2.385 0-1.723.512-3.118 1.544-4.183.076-.076.152-.153.235-.23 1.184-1.09 2.612-1.636 4.283-1.636.611 0 1.197.076 1.75.229v-.001c1.27.344 2.384 1.085 3.343 2.216.076.09.215.096.29.007l2.498-2.832a.201.201 0 0 0-.003-.264c-1.955-2.147-4.323-3.334-7.1-3.556-.322-.025-.646-.04-.977-.04z" fill="#949494"/><path d="M82.588 9.98a.195.195 0 0 0-.17.29l1.892 3.309 3.423 5.983 1.38 2.41a.2.2 0 0 1 .026.097v7.61c0 .106.086.195.195.195h4.049c.109 0 .194-.09.194-.195v-7.61c0-.033.01-.066.027-.096l.976-1.706 3.704-6.476.757-1.32.503-.88h-.007l.007-.003.754-1.316a.194.194 0 0 0-.168-.29h-4.363a.196.196 0 0 0-.168.095l-3.953 6.803-.003.003v.003l-.212.156-.159.122a.203.203 0 0 1-.082-.076l-.067-.112-.099-.17-3.905-6.73a.196.196 0 0 0-.169-.095zm15.537 2.04v.002l-.004.002z" fill="#aaa"/><path d="M66.598 9.98a.193.193 0 0 0-.196.196v19.503c0 .106.086.195.195.195h14.264c.11 0 .196-.09.196-.195v-3.54a.196.196 0 0 0-.196-.194h-9.825a.195.195 0 0 1-.196-.195v-3.737c0-.106.09-.196.196-.196h8.519a.195.195 0 0 0 .195-.194v-3.394c0-.11-.09-.195-.195-.195h-8.52a.196.196 0 0 1-.195-.195V14.13c0-.11.09-.195.196-.195h9.515a.195.195 0 0 0 .195-.195v-3.565a.195.195 0 0 0-.195-.195h-7.829z" fill="#bcbcbc"/><path d="M47.256 9.98a.193.193 0 0 0-.195.196v19.503c0 .106.086.195.195.195h4.048c.11 0 .196-.09.196-.195V24.31c0-.046.016-.093.05-.13l.842-.942.94-1.044a.196.196 0 0 1 .3.016l2.808 3.777.002.002 2.016 2.713.81 1.09a.19.19 0 0 0 .156.08h4.703a.197.197 0 0 0 .158-.31l-.171-.241a693.927 693.927 0 0 1-1.846-2.587c-.566-.79-1.194-1.673-1.888-2.652l-.07-.1v.002-.002a1569.226 1569.226 0 0 0-3.628-5.086.195.195 0 0 1 .017-.241l1.772-1.968h-.006l.006-.001v-.003l1.459-1.62 1.402-1.558 2.88-3.202a.194.194 0 0 0-.145-.324H59.1a.196.196 0 0 0-.146.063l-3.079 3.345-4.038 4.39a.194.194 0 0 1-.338-.132V10.17a.193.193 0 0 0-.195-.192h-2.11zm.091 9.823v.01h-.001zm12.27 8.34v.002h-.001z" fill="#b8b8b8"/><path d="M89.222 29.806c-.024-.025-.045-1.79-.045-3.92V22.01l-3.38-5.904c-1.996-3.487-3.364-5.945-3.342-6.003.032-.084.357-.098 2.278-.098 2.052 0 2.25.01 2.342.115.055.064.986 1.649 2.069 3.523 1.082 1.873 2.003 3.443 2.045 3.488.194.21.46-.181 2.48-3.662l2.01-3.465h2.275c1.894 0 2.28.016 2.31.094.02.05-1.477 2.737-3.326 5.969l-3.362 5.876-.066 7.872-2.121.018c-1.167.01-2.142-.003-2.167-.028z" fill="#a0a0a0"/><path d="M66.456 29.767c-.017-.045-.023-4.503-.014-9.905l.017-9.823h14.22v3.837l-4.855.017c-3.453.012-4.88.038-4.944.09-.13.109-.13 3.91 0 4.018.063.052 1.362.079 4.448.09l4.36.018v3.638l-4.36.017c-3.086.012-4.385.039-4.448.09-.07.06-.089.465-.089 1.98 0 1.047.018 1.95.04 2.009.036.094.538.104 4.999.104 3.29 0 5 .023 5.086.069.122.065.128.156.128 1.872 0 1.314-.022 1.825-.08 1.883-.118.118-14.463.115-14.508-.003z" fill="#acacac"/></svg>
