<svg fill="#000000" version="1.1" id="Capa_1" xmlns="http://www.w3.org/2000/svg"
	 width="800px" height="800px" viewBox="0 0 318.336 318.336"
	 xml:space="preserve">
<g>
	<g>
		<path d="M302.137,74.432h-21.031c-30.496-13.614-56.389-20.611-77.028-20.611c-26.731,0-39.245,11.649-44.906,20.535
			c-5.658-8.886-18.17-20.535-44.906-20.535c-20.638,0-46.533,7.003-77.037,20.611H16.2c-8.946,0-16.2,7.253-16.2,16.2v157.684
			c0,8.949,7.254,16.2,16.2,16.2h285.937c8.948,0,16.199-7.251,16.199-16.2V90.632C318.336,81.686,311.085,74.432,302.137,74.432z
			 M154.786,84.265c-0.048,0.25-0.069,0.503-0.069,0.757V233.74c-7.084-8.18-18.95-14.438-38.804-14.438
			c-35.44,0-79.927,19.432-95.813,26.947V91.528c13.608-6.927,26.31-12.587,38.156-17.096c21.745-8.271,40.526-12.511,56.004-12.511
			c18.992,0,29.37,6.354,34.986,12.511c3.241,3.554,4.91,7.038,5.698,9.192C154.852,83.985,154.791,84.243,154.786,84.265z
			 M298.234,246.249c-15.884-7.516-60.371-26.947-95.809-26.947c-19.859,0-31.72,6.254-38.805,14.438
			c-0.261,0.3-0.562,0.58-0.804,0.886V85.48c0.084-0.351,0.269-0.981,0.583-1.825c0.799-2.149,2.499-5.647,5.776-9.218
			c5.648-6.157,16.026-12.512,34.9-12.512c15.478,0,34.251,4.24,56.004,12.512c11.854,4.509,24.548,10.17,38.153,17.097V246.249
			L298.234,246.249z"/>
	</g>
</g>
</svg>