<svg xmlns="http://www.w3.org/2000/svg" width="50" height="50" viewBox="0 0 500 500"><path stroke="#007bff" stroke-width="38" d="M 297.507 242.806 L 339.507 242.806 M 247.507 242.806 L 289.507 242.806 M 198.507 242.806 L 240.507 242.806 M 149.507 242.806 L 190.507 242.806 M 99.507 242.806 L 141.507 242.806 M 149.507 196.806 L 190.507 196.806 M 198.507 196.806 L 240.507 196.806 M 247.507 196.806 L 289.507 196.806 M 247.507 150.806 L 289.507 150.806"/><path fill="#007bff" d="M 473.507 244.806 C 473.507 244.806 455.507 227.806 418.507 233.806 C 414.507 204.806 383.507 187.806 383.507 187.806 C 383.507 187.806 354.507 222.806 375.507 261.806 C 369.507 264.806 359.507 268.806 344.507 268.806 L 69.507 268.806 C 64.507 287.806 64.507 413.806 202.507 413.806 C 301.507 413.806 375.507 367.806 410.507 283.806 C 462.507 287.806 473.507 244.806 473.507 244.806"/></svg>