<svg xmlns="http://www.w3.org/2000/svg" width="16" height="16" fill="currentColor" class="bi bi-filetype-xml" viewBox="0 0 16 16">
  <path fill-rule="evenodd" d="M14 4.5V14a2 2 0 0 1-2 2v-1a1 1 0 0 0 1-1V4.5h-2A1.5 1.5 0 0 1 9.5 3V1H4a1 1 0 0 0-1 1v9H2V2a2 2 0 0 1 2-2h5.5L14 4.5ZM3.527 11.85h-.893l-.823 1.439h-.036L.943 11.85H.012l1.227 1.983L0 15.85h.861l.853-1.415h.035l.85 1.415h.908l-1.254-1.992 1.274-2.007Zm.954 3.999v-2.66h.038l.952 2.159h.516l.946-2.16h.038v2.661h.715V11.85h-.8l-1.14 2.596h-.025L4.58 11.85h-.806v3.999h.706Zm4.71-.674h1.696v.674H8.4V11.85h.791v3.325Z"/>
</svg>