<svg xmlns="http://www.w3.org/2000/svg" width="16" height="16" fill="currentColor" class="bi bi-file-zip" viewBox="0 0 16 16">
  <path d="M6.5 7.5a1 1 0 0 1 1-1h1a1 1 0 0 1 1 1v.938l.4 1.599a1 1 0 0 1-.416 1.074l-.93.62a1 1 0 0 1-1.109 0l-.93-.62a1 1 0 0 1-.415-1.074l.4-1.599V7.5zm2 0h-1v.938a1 1 0 0 1-.03.243l-.4 1.598.93.62.93-.62-.4-1.598a1 1 0 0 1-.03-.243V7.5z"/>
  <path d="M2 2a2 2 0 0 1 2-2h8a2 2 0 0 1 2 2v12a2 2 0 0 1-2 2H4a2 2 0 0 1-2-2V2zm5.5-1H4a1 1 0 0 0-1 1v12a1 1 0 0 0 1 1h8a1 1 0 0 0 1-1V2a1 1 0 0 0-1-1H9v1H8v1h1v1H8v1h1v1H7.5V5h-1V4h1V3h-1V2h1V1z"/>
</svg>