<svg xmlns="http://www.w3.org/2000/svg" width="16" height="16" fill="currentColor" class="bi bi-filetype-html" viewBox="0 0 16 16">
  <path fill-rule="evenodd" d="M14 4.5V11h-1V4.5h-2A1.5 1.5 0 0 1 9.5 3V1H4a1 1 0 0 0-1 1v9H2V2a2 2 0 0 1 2-2h5.5L14 4.5Zm-9.736 7.35v3.999h-.791v-1.714H1.79v1.714H1V11.85h.791v1.626h1.682V11.85h.79Zm2.251.662v3.337h-.794v-3.337H4.588v-.662h3.064v.662H6.515Zm2.176 3.337v-2.66h.038l.952 2.159h.516l.946-2.16h.038v2.661h.715V11.85h-.8l-1.14 2.596H9.93L8.79 11.85h-.805v3.999h.706Zm4.71-.674h1.696v.674H12.61V11.85h.79v3.325Z"/>
</svg>