<svg xmlns="http://www.w3.org/2000/svg" width="16" height="16" fill="currentColor" class="bi bi-filetype-md" viewBox="0 0 16 16">
  <path fill-rule="evenodd" d="M14 4.5V14a2 2 0 0 1-2 2H9v-1h3a1 1 0 0 0 1-1V4.5h-2A1.5 1.5 0 0 1 9.5 3V1H4a1 1 0 0 0-1 1v9H2V2a2 2 0 0 1 2-2h5.5L14 4.5ZM.706 13.189v2.66H0V11.85h.806l1.14 2.596h.026l1.14-2.596h.8v3.999h-.716v-2.66h-.038l-.946 2.159h-.516l-.952-2.16H.706Zm3.919 2.66V11.85h1.459c.406 0 .741.078 1.005.234.263.157.46.383.589.68.13.297.196.655.196 1.075 0 .422-.066.784-.196 1.084-.131.301-.33.53-.595.689-.264.158-.597.237-1 .237H4.626Zm1.353-3.354h-.562v2.707h.562c.186 0 .347-.028.484-.082a.8.8 0 0 0 .334-.252 1.14 1.14 0 0 0 .196-.422c.045-.168.067-.365.067-.592a2.1 2.1 0 0 0-.117-.753.89.89 0 0 0-.354-.454c-.159-.102-.362-.152-.61-.152Z"/>
</svg>