<?xml version="1.0" encoding="utf-8"?>
<svg width="16" height="16" fill="currentColor" class="bi bi-chat-left-text" viewBox="0 0 16 16" xmlns="http://www.w3.org/2000/svg">
  <path d="M14 1a1 1 0 0 1 1 1v8a1 1 0 0 1-1 1H4.414A2 2 0 0 0 3 11.586l-2 2V2a1 1 0 0 1 1-1zM2 0a2 2 0 0 0-2 2v12.793a.5.5 0 0 0 .854.353l2.853-2.853A1 1 0 0 1 4.414 12H14a2 2 0 0 0 2-2V2a2 2 0 0 0-2-2z" style="fill: rgb(0, 0, 0);"/>
  <path d="M3 3.5a.5.5 0 0 1 .5-.5h9a.5.5 0 0 1 0 1h-9a.5.5 0 0 1-.5-.5M3 6a.5.5 0 0 1 .5-.5h9a.5.5 0 0 1 0 1h-9A.5.5 0 0 1 3 6m0 2.5a.5.5 0 0 1 .5-.5h5a.5.5 0 0 1 0 1h-5a.5.5 0 0 1-.5-.5" style="fill: rgb(0, 0, 0);"/>
  <path d="M 0.125 0.178 C 0.312 -0.024 0.636 -0.043 0.831 0.152 L 15.771 15.1 C 16.242 15.571 15.561 16.304 15.09 15.832 L 0.151 0.885 C -0.045 0.69 -0.063 0.381 0.125 0.178 Z" id="path937" style="fill: rgb(0, 0, 0);"/>
</svg>