<svg xmlns="http://www.w3.org/2000/svg" width="16" height="16" fill="currentColor" class="bi bi-bezier2" viewBox="0 0 16 16">
  <path fill-rule="evenodd" d="M1 2.5A1.5 1.5 0 0 1 2.5 1h1A1.5 1.5 0 0 1 5 2.5h4.134a1 1 0 1 1 0 1h-2.01c.18.18.34.381.484.605.638.992.892 2.354.892 3.895 0 1.993.257 3.092.713 3.7.356.476.895.721 1.787.784A1.5 1.5 0 0 1 12.5 11h1a1.5 1.5 0 0 1 1.5 1.5v1a1.5 1.5 0 0 1-1.5 1.5h-1a1.5 1.5 0 0 1-1.5-1.5H6.866a1 1 0 1 1 0-1h1.711a2.839 2.839 0 0 1-.165-.2C7.743 11.407 7.5 10.007 7.5 8c0-1.46-.246-2.597-.733-3.355-.39-.605-.952-1-1.767-1.112A1.5 1.5 0 0 1 3.5 5h-1A1.5 1.5 0 0 1 1 3.5v-1zM2.5 2a.5.5 0 0 0-.5.5v1a.5.5 0 0 0 .5.5h1a.5.5 0 0 0 .5-.5v-1a.5.5 0 0 0-.5-.5h-1zm10 10a.5.5 0 0 0-.5.5v1a.5.5 0 0 0 .5.5h1a.5.5 0 0 0 .5-.5v-1a.5.5 0 0 0-.5-.5h-1z"/>
</svg>