<svg height="48" viewBox="0 0 48 48" width="48" xmlns="http://www.w3.org/2000/svg"><path d="m0 0h48v48h-48z" fill="none"/><path d="m8.091 21c0 1.089-.576 1.695-1.304 2.464-.755.797-1.696 1.788-1.696 3.394v11.142c0 2.757 2.243 5 5 5h12c2.757 0 5-2.243 5-5v-11.143c0-2.316-2.045-3.302-4.022-4.254-2.447-1.179-4.978-2.397-4.978-6.104v-.215l-.088-.195c-.081-.179-.287-.608-.6-1.09h1.969l2.032-1.242 5.949 5.949 1.414-1.414-5.608-5.608 1.841-1.123v-6.561h-14.186l-5.713 3.428-.12 6.572h3.46c-.219.456-.351.961-.351 1.5v4.5zm-1.01-11.428 4.287-2.572h11.632v3.439l-4.19 2.561h-4.219-3-4.572zm3.01 11.428v-4.5c0-.827.673-1.5 1.5-1.5h3c.341 0 1.054.832 1.502 1.731.108 4.784 3.569 6.451 6.107 7.674 1.846.89 2.89 1.441 2.89 2.452v11.143c0 1.654-1.346 3-3 3h-12c-1.654 0-3-1.346-3-3v-11.143c0-.771.415-1.244 1.147-2.017.826-.87 1.854-1.953 1.854-3.84z"/><path d="m15.091 38h2v-5h5v-2h-5v-5h-2v5h-5v2h5z"/><circle cx="30.091" cy="8" r="2"/><circle cx="36.091" cy="8" r="2"/><circle cx="42.091" cy="8" r="2"/><circle cx="33.091" cy="13" r="2"/><circle cx="37.091" cy="17" r="2"/></svg>