<?xml version="1.0" encoding="UTF-8"?>
<svg xmlns="http://www.w3.org/2000/svg" version="1.1" xmlns:xlink="http://www.w3.org/1999/xlink" viewBox="0 0 24 24">
        <symbol id="icon-split-size" viewBox="0 0 24 24">
         <g id="Layer_2" data-name="Layer 2">
    <g id="Layer_1-2" data-name="Layer 1">
      <g>
        <path d="M17.90313,20.16555l-6.42466-6.42466L9.32162,15.89774a2.45776,2.45776,0,0,1,.2524.73425,4.481,4.481,0,0,1,.06883.78013,3.53515,3.53515,0,0,1-1.07842,2.59281,3.53516,3.53516,0,0,1-2.59281,1.07843,3.53516,3.53516,0,0,1-2.59281-1.07843,3.6561,3.6561,0,0,1,0-5.18561,3.53516,3.53516,0,0,1,2.59281-1.07843,4.48117,4.48117,0,0,1,.78014.06884,2.45778,2.45778,0,0,1,.73424.25239l2.15685-2.15685L7.486,9.74842a2.45752,2.45752,0,0,1-.73424.2524,4.48117,4.48117,0,0,1-.78014.06884A3.53516,3.53516,0,0,1,3.37881,8.99123,3.53515,3.53515,0,0,1,2.30039,6.39842,3.53515,3.53515,0,0,1,3.37881,3.80561,3.53515,3.53515,0,0,1,5.97162,2.72719,3.53515,3.53515,0,0,1,8.56443,3.80561,3.53515,3.53515,0,0,1,9.64285,6.39842a4.48107,4.48107,0,0,1-.06883.78014,2.45786,2.45786,0,0,1-.2524.73425L20.65655,19.24774v.91781Zm-3.67124-9.17809L12.39628,9.15185,17.90313,3.645h2.75342v.91781ZM5.97162,8.234A1.841,1.841,0,0,0,7.80724,6.39842,1.841,1.841,0,0,0,5.97162,4.56281,1.841,1.841,0,0,0,4.136,6.39842,1.841,1.841,0,0,0,5.97162,8.234Zm5.50685,4.13014a.47051.47051,0,1,0-.32123-.13767A.44026.44026,0,0,0,11.47847,12.36418ZM5.97162,19.24774a1.83562,1.83562,0,1,0-1.29641-3.132,1.83562,1.83562,0,0,0,1.29641,3.132Z" style="fill: currentColor"/>
        <g>
          <rect x="18.32071" y="7.9834" width="3.37891" height="2" style="fill: currentColor"/>
          <rect x="18.32071" y="10.90527" width="3.37891" height="2" style="fill: currentColor"/>
          <rect x="18.32071" y="13.82715" width="3.37891" height="2" style="fill: currentColor"/>
        </g>
      </g>
      <rect width="24" height="24" style="fill: none"/>
    </g>
  </g>
    </symbol>
</svg>
