<svg xmlns="http://www.w3.org/2000/svg" width="16" height="16" fill="currentColor" class="bi bi-postage-heart" viewBox="0 0 16 16">
  <path d="M3.5 1a1 1 0 0 0 1-1h1a1 1 0 0 0 2 0h1a1 1 0 0 0 2 0h1a1 1 0 1 0 2 0H15v1a1 1 0 1 0 0 2v1a1 1 0 1 0 0 2v1a1 1 0 1 0 0 2v1a1 1 0 1 0 0 2v1a1 1 0 1 0 0 2v1h-1.5a1 1 0 1 0-2 0h-1a1 1 0 1 0-2 0h-1a1 1 0 1 0-2 0h-1a1 1 0 1 0-2 0H1v-1a1 1 0 1 0 0-2v-1a1 1 0 1 0 0-2V9a1 1 0 1 0 0-2V6a1 1 0 0 0 0-2V3a1 1 0 0 0 0-2V0h1.5a1 1 0 0 0 1 1M3 3v10a1 1 0 0 0 1 1h8a1 1 0 0 0 1-1V3a1 1 0 0 0-1-1H4a1 1 0 0 0-1 1"/>
  <path d="M8 11C2.175 7.236 6.336 4.31 8 5.982 9.664 4.309 13.825 7.236 8 11"/>
</svg>