<?xml version="1.0" encoding="UTF-8"?>
<!-- Uploaded to: SVG Repo, www.svgrepo.com, Generator: SVG Repo Mixer Tools -->
<svg width="800px" height="800px" viewBox="0 0 512 512" version="1.1" xmlns="http://www.w3.org/2000/svg" xmlns:xlink="http://www.w3.org/1999/xlink">
    <title>rename</title>
        <symbol id="icon-rename" viewBox="0 0 512 512">
    <g id="Page-1" stroke="none" stroke-width="1" fill="none" fill-rule="evenodd">
        <g id="Combined-Shape" fill="currentColor" transform="translate(42.666667, 64.000000)">
            <path d="M362.666667,1.42108547e-14 L362.666667,21.3333333 L320,21.333 L320,362.666 L362.666667,362.666667 L362.666667,384 L320,383.999 L320,384 L298.666667,384 L298.666,383.999 L256,384 L256,362.666667 L298.666,362.666 L298.666,21.333 L256,21.3333333 L256,1.42108547e-14 L362.666667,1.42108547e-14 Z M426.666667,64 L426.666667,320 L341.333333,320 L341.333333,277.333333 L384,277.333333 L384,106.666667 L341.333333,106.666667 L341.333333,64 L426.666667,64 Z M277.333333,64 L277.333333,320 L3.55271368e-14,320 L3.55271368e-14,64 L277.333333,64 Z M179.2,89.6 L149.333333,89.6 L149.333333,234.666667 C149.333333,248 148.5,256.333333 147.875,264.354167 L147.792993,265.422171 L147.792993,265.422171 L147.714003,266.48894 C147.417695,270.579012 147.2,274.696296 147.2,279.466667 L147.2,279.466667 L177.066667,279.466667 L177.066667,260.266667 C184.941497,273.926888 199.708077,282.130544 215.466667,281.6 C229.540046,281.805757 242.921593,275.508559 251.733333,264.533333 C263.162478,248.989677 269.832496,230.461848 270.933333,211.2 C270.933333,170.666667 249.6,142.933333 217.6,142.933333 C202.507405,142.999748 188.308689,150.099106 179.2,162.133333 L179.2,162.133333 L179.2,89.6 Z M119.466667,162.133333 C107.961824,149.843793 91.4322333,143.546807 74.6666667,145.066667 C57.6785115,144.485924 40.8138255,148.15216 25.6,155.733333 L25.6,155.733333 L34.1333333,177.066667 C45.3979052,171.147831 57.7246848,167.522308 70.4,166.4 C78.5613135,165.511423 86.6853595,168.371259 92.4903835,174.176283 C98.2954074,179.981307 101.155244,188.105353 100.266667,196.266667 L100.266667,196.266667 L100.266667,198.4 L78.9333333,198.4 C65.8181975,197.679203 52.705771,199.864608 40.5333333,204.8 C26.2806563,210.950309 17.6507691,225.621117 19.2,241.066667 C19.0625857,252.057651 23.6679763,262.574827 31.8381493,269.927982 C40.0083223,277.281138 50.9508304,280.757072 61.8666667,279.466667 C77.2795695,280.291768 92.2192911,274.001359 102.4,262.4 L102.4,262.4 L102.4,277.333333 L130.133333,277.333333 C128.292479,266.054406 127.577851,254.620365 128,243.2 L128,243.2 L128,204.8 C129.999138,190.023932 126.995128,175.003882 119.466667,162.133333 Z M98.1333333,213.333333 L98.1333333,238.933333 C92.082572,249.988391 80.836024,257.218314 68.2666667,258.133333 C63.0655139,258.520242 57.9538681,256.621996 54.2659359,252.934064 C50.5780036,249.246132 48.6797582,244.134486 49.0666667,238.933333 C49.0666667,224 59.7333333,215.466667 85.3333333,213.333333 L85.3333333,213.333333 L98.1333333,213.333333 Z M209.066667,166.4 C226.133333,166.4 238.933333,183.466667 238.933333,211.2 C238.933333,238.933333 228.266667,256 211.2,256 C197.298049,255.69869 184.825037,247.383349 179.2,234.666667 L179.2,234.666667 L179.2,187.733333 C185.154203,176.240507 196.263981,168.304951 209.066667,166.4 Z">
</path>
        </g>
    </g>
    </symbol>
</svg>
