<?xml version="1.0" encoding="UTF-8"?>
<svg xmlns="http://www.w3.org/2000/svg" version="1.1" xmlns:xlink="http://www.w3.org/1999/xlink" viewBox="0 0 24 24">
        <symbol id="icon-split-auto" viewBox="0 0 24 24">
           <g id="Layer_2" data-name="Layer 2">
    <g id="Layer_1-2" data-name="Layer 1">
      <g>
        <path d="M18.42466,20.16555,12,13.74089,9.84315,15.89774a2.45776,2.45776,0,0,1,.2524.73425,4.481,4.481,0,0,1,.06883.78013A3.53515,3.53515,0,0,1,9.086,20.00493a3.53516,3.53516,0,0,1-2.59281,1.07843,3.53516,3.53516,0,0,1-2.59281-1.07843,3.6561,3.6561,0,0,1,0-5.18561,3.53516,3.53516,0,0,1,2.59281-1.07843,4.48117,4.48117,0,0,1,.78014.06884,2.45778,2.45778,0,0,1,.73424.25239l2.15685-2.15685L8.00753,9.74842a2.45752,2.45752,0,0,1-.73424.2524,4.48117,4.48117,0,0,1-.78014.06884A3.53516,3.53516,0,0,1,3.90034,8.99123,3.53515,3.53515,0,0,1,2.82192,6.39842,3.53515,3.53515,0,0,1,3.90034,3.80561,3.53515,3.53515,0,0,1,6.49315,2.72719,3.53515,3.53515,0,0,1,9.086,3.80561a3.53515,3.53515,0,0,1,1.07842,2.59281,4.48107,4.48107,0,0,1-.06883.78014,2.45786,2.45786,0,0,1-.2524.73425L21.17808,19.24774v.91781Zm-3.67123-9.17809L12.91781,9.15185,18.42466,3.645h2.75342v.91781ZM6.49315,8.234A1.841,1.841,0,0,0,8.32877,6.39842,1.841,1.841,0,0,0,6.49315,4.56281,1.841,1.841,0,0,0,4.65753,6.39842,1.841,1.841,0,0,0,6.49315,8.234ZM12,12.36418a.47051.47051,0,1,0-.32123-.13767A.44026.44026,0,0,0,12,12.36418ZM6.49315,19.24774a1.83562,1.83562,0,1,0-1.29641-3.132,1.83562,1.83562,0,0,0,1.29641,3.132Z" style="fill: currentColor"/>
        <path d="M18.0708,9.373a.73373.73373,0,0,1,.44434-.14942h.88867a.73372.73372,0,0,1,.44433.14942,1.04878,1.04878,0,0,1,.32374.40039,1.24521,1.24521,0,0,1,.1206.54883v4.3916h-.88867V13.03613h-.88867v1.67774h-.88868v-4.3916a1.24508,1.24508,0,0,1,.12061-.54883A1.04885,1.04885,0,0,1,18.0708,9.373Zm1.333.88672h-.88867V12h.88867Z" style="fill: currentColor"  transform="translate(-5 -4) scale(1.3) "/>
      </g>
      <rect width="24" height="24" style="fill: none"/>
    </g>
  </g>
    </symbol>
</svg>
