<svg xmlns="http://www.w3.org/2000/svg" version="1.1" xmlns:xlink="http://www.w3.org/1999/xlink" xmlns:svgjs="http://svgjs.dev/svgjs" width="1500" height="1500" viewBox="0 0 1500 1500"><rect width="1500" height="1500" fill="#ffffff"></rect><g transform="matrix(0.6666666666666666,0,0,0.6666666666666666,248.76019979152613,372.1182795698925)"><svg viewBox="0 0 329 248" data-background-color="#ffffff" preserveAspectRatio="xMidYMid meet" height="1130" width="1500" xmlns="http://www.w3.org/2000/svg" xmlns:xlink="http://www.w3.org/1999/xlink"><g id="tight-bounds" transform="matrix(1,0,0,1,0.4078942685879099,0.4000000000000057)"><svg viewBox="0 0 328.1842114628242 247.2" height="247.2" width="328.1842114628242"><g><svg viewBox="0 0 395.52 297.9197066312113" height="247.2" width="328.1842114628242"><g transform="matrix(1,0,0,1,0,187.61976296923945)"><svg viewBox="0 0 395.52 110.29994366197182" height="110.29994366197182" width="395.52"><g id="textblocktransform"><svg viewBox="0 0 395.52 110.29994366197182" height="110.29994366197182" width="395.52" id="textblock"><g><svg viewBox="0 0 395.52 110.29994366197182" height="110.29994366197182" width="395.52"><g transform="matrix(1,0,0,1,0,0)"><svg width="395.52" viewBox="2.1499999999999995 -34 124.74 34.65" height="110.29994366197182" data-palette-color="url(#c4fb4b51-0690-43bf-8eaa-ad1e5bf0062b)"><g class="wordmark-text-0" data-fill-palette-color="primary" id="text-0"></g></svg></g></svg></g></svg></g></svg></g><g transform="matrix(1,0,0,1,132.9001843116207,0)"><svg viewBox="0 0 129.7196313767586 161.5805934692958" height="161.5805934692958" width="129.7196313767586"><g><svg xmlns="http://www.w3.org/2000/svg" xmlns:xlink="http://www.w3.org/1999/xlink" version="1.0" x="0" y="0" viewBox="14 15 57 71" enable-background="new 0 0 100 100" xml:space="preserve" height="161.5805934692958" width="129.7196313767586" class="icon-icon-0" data-fill-palette-color="accent" id="icon-0"></svg></g></svg></g><g></g></svg></g><defs></defs><mask id="15130c8a-9a7a-4afc-8629-a24908d1c33d"><g id="SvgjsG7475"><svg viewBox="0 0 328.1842114628242 247.2" height="247.2" width="328.1842114628242"><g><svg viewBox="0 0 395.52 297.9197066312113" height="247.2" width="328.1842114628242"><g transform="matrix(1,0,0,1,0,187.61976296923945)"><svg viewBox="0 0 395.52 110.29994366197182" height="110.29994366197182" width="395.52"><g id="SvgjsG7474"><svg viewBox="0 0 395.52 110.29994366197182" height="110.29994366197182" width="395.52" id="SvgjsSvg7473"><g><svg viewBox="0 0 395.52 110.29994366197182" height="110.29994366197182" width="395.52"><g transform="matrix(1,0,0,1,0,0)"><svg width="395.52" viewBox="2.1499999999999995 -34 124.74 34.65" height="110.29994366197182" data-palette-color="url(#c4fb4b51-0690-43bf-8eaa-ad1e5bf0062b)"><g class="wordmark-text-0" data-fill-palette-color="primary" id="SvgjsG7472"><path d="M10.2 0.65L10.2 0.65Q8.35 0.65 6.8 0.3 5.25-0.05 4.25-1L4.25-1Q3.5-1.7 3.25-2.58 3-3.45 3-4.5L3-4.5Q3-6.2 3.3-7.9L3.3-7.9Q3.75-10.85 4.1-14.25 4.45-17.65 4.45-20.55L4.45-20.55Q4.45-21.45 4.38-22.6 4.3-23.75 4.15-24.75L4.15-24.75Q3.8-24.6 3.48-24.48 3.15-24.35 2.9-24.35L2.9-24.35Q2.45-24.35 2.3-24.8 2.15-25.25 2.15-25.8L2.15-25.8Q2.15-27.25 2.83-28.28 3.5-29.3 5.05-30.1L5.05-30.1Q6.7-31 9.38-31.68 12.05-32.35 14.8-32.35L14.8-32.35Q21.05-32.35 24.63-28.68 28.2-25 28.2-18.25L28.2-18.25Q28.2-14.4 27.03-10.98 25.85-7.55 23.55-4.93 21.25-2.3 17.9-0.83 14.55 0.65 10.2 0.65ZM11.8-4.95L11.8-4.95Q14.05-4.95 16.3-5.65 18.55-6.35 20.38-7.75 22.2-9.15 23.3-11.33 24.4-13.5 24.4-16.55L24.4-16.55Q24.4-20 23.05-22.25 21.7-24.5 19.45-25.6 17.2-26.7 14.45-26.7L14.45-26.7Q12.95-26.7 11.48-26.45 10-26.2 9.15-25.95L9.15-25.95Q9.1-23.65 8.88-21.48 8.65-19.3 8.35-17.25L8.35-17.25Q8.05-15.1 7.88-13.05 7.7-11 7.7-9L7.7-9Q7.7-6.5 8.72-5.73 9.75-4.95 11.8-4.95ZM40 0.65L40 0.65Q36.55 0.65 34.47-1.23 32.4-3.1 32.4-6.75L32.4-6.75Q32.4-8.45 32.87-10.05 33.35-11.65 34.15-13.05L34.15-13.05Q33.35-12.55 32.95-12.55L32.95-12.55Q32.35-12.55 32.12-13.23 31.9-13.9 31.9-14.55L31.9-14.55Q31.9-15.7 32.37-16.38 32.85-17.05 33.3-17.4L33.3-17.4Q34.35-18.3 36.6-19.38 38.85-20.45 42-20.45L42-20.45Q46.3-20.45 48.67-18.05 51.05-15.65 51.05-11.35L51.05-11.35Q51.05-8 49.65-5.28 48.25-2.55 45.77-0.95 43.3 0.65 40 0.65ZM41.55-4.45L41.55-4.45Q44.05-4.45 45.77-6.03 47.5-7.6 47.5-10.2L47.5-10.2Q47.5-12.9 45.75-14.05 44-15.2 41.7-15.2L41.7-15.2Q40.65-15.2 39.8-15 38.95-14.8 38.2-14.5L38.2-14.5Q37.5-13.5 36.95-12.25 36.4-11 36.4-9.5L36.4-9.5Q36.4-7 37.9-5.73 39.4-4.45 41.55-4.45ZM62.15 0.65L62.15 0.65Q58.65 0.65 56.67-1.48 54.7-3.6 54.7-7.4L54.7-7.4Q54.7-11.15 56.3-14.1 57.9-17.05 60.7-18.75 63.5-20.45 67.05-20.45L67.05-20.45Q69.45-20.45 70.84-19.65 72.25-18.85 72.25-17.45L72.25-17.45Q72.25-16.2 71.05-15L71.05-15Q70.59-14.55 69.87-14.18 69.15-13.8 68.75-13.8L68.75-13.8Q68.3-13.8 68-14.15L68-14.15Q67.5-14.7 66.7-15.2 65.9-15.7 64.45-15.7L64.45-15.7Q62-15.7 60.45-14.03 58.9-12.35 58.9-9.65L58.9-9.65Q58.9-7.2 60.3-5.7 61.7-4.2 64-4.2L64-4.2Q65.2-4.2 66.62-4.63 68.05-5.05 69.15-5.85L69.15-5.85Q69.7-6.35 70.3-6.35L70.3-6.35Q71.3-6.35 71.3-5.1L71.3-5.1Q71.3-3.45 69.65-1.95L69.65-1.95Q68.4-0.8 66.32-0.08 64.25 0.65 62.15 0.65ZM77.29 0.55L77.29 0.55Q76.74 0.55 76.24 0.23 75.74-0.1 75.84-0.65L75.84-0.65Q76.59-4.65 77.12-8.78 77.64-12.9 77.64-17.1L77.64-17.1Q77.64-20.8 77.39-23.8 77.14-26.8 75.79-29.55L75.79-29.55Q75.54-30.1 75.39-30.5 75.24-30.9 75.24-31.25L75.24-31.25Q75.24-32.2 76.34-33.1 77.44-34 78.69-34L78.69-34Q80.49-34 81.14-31.8 81.79-29.6 81.79-25.3L81.79-25.3Q81.79-20.15 81.19-16.32 80.59-12.5 80.14-10.5L80.14-10.5 80.34-10.4Q81.34-12.85 82.89-15.13 84.44-17.4 86.47-18.9 88.49-20.4 90.89-20.4L90.89-20.4Q93.24-20.4 94.52-19 95.79-17.6 95.79-15.65L95.79-15.65Q95.79-13.35 94.14-11.55 92.49-9.75 89.84-8.55L89.84-8.55Q90.49-6.85 91.69-5.88 92.89-4.9 94.74-4.9L94.74-4.9Q95.34-4.9 95.74-5L95.74-5Q96.39-5.15 96.39-3.75L96.39-3.75Q96.39-2.95 96.09-1.95 95.79-0.95 94.92-0.23 94.04 0.5 92.29 0.5L92.29 0.5Q89.94 0.5 88.47-0.88 86.99-2.25 86.17-4.28 85.34-6.3 84.89-8.3L84.89-8.3Q84.49-10.15 86.14-10.25L86.14-10.25Q87.89-10.45 89.09-11.3 90.29-12.15 90.29-13.55L90.29-13.55Q90.29-15.15 88.74-15.15L88.74-15.15Q87.74-15.15 86.72-14.43 85.69-13.7 84.82-12.7 83.94-11.7 83.39-10.75L83.39-10.75Q82.64-9.45 82.09-8.2 81.54-6.95 81.19-5.7L81.19-5.7 81.19-3.7Q81.19-1.85 80.12-0.65 79.04 0.55 77.29 0.55ZM104.59-24.85L104.59-24.85Q103.19-24.9 102.34-25.7 101.49-26.5 101.49-27.95L101.49-27.95Q101.54-29.5 102.54-30.48 103.54-31.45 105.09-31.4L105.09-31.4Q106.54-31.35 107.37-30.55 108.19-29.75 108.14-28.3L108.14-28.3Q108.09-26.8 107.14-25.83 106.19-24.85 104.59-24.85ZM104.64 0.5L104.64 0.5Q103.14 0.5 102.29-0.33 101.44-1.15 101.44-3.15L101.44-3.15Q101.44-4.3 101.67-5.4 101.89-6.5 102.19-7.55L102.19-7.55Q102.54-8.65 102.77-9.8 102.99-10.95 102.99-12.25L102.99-12.25Q102.99-13.15 102.74-13.98 102.49-14.8 101.64-15.2L101.64-15.2Q100.99-15.55 100.52-15.93 100.04-16.3 100.04-16.9L100.04-16.9Q100.04-17.6 100.69-18.4 101.34-19.2 102.42-19.78 103.49-20.35 104.64-20.35L104.64-20.35Q105.89-20.35 106.47-19.7 107.04-19.05 107.24-18.05 107.44-17.05 107.44-16L107.44-16Q107.44-14.4 107.19-12.88 106.94-11.35 106.69-10.05L106.69-10.05Q106.49-9.1 106.39-8.3 106.29-7.5 106.29-6.8L106.29-6.8Q106.29-5.55 106.89-4.93 107.49-4.3 108.59-3.75L108.59-3.75Q109.04-3.5 109.04-3L109.04-3Q109.04-2.6 108.64-1.75 108.24-0.9 107.27-0.2 106.29 0.5 104.64 0.5ZM120.09 0.65L120.09 0.65Q117.04 0.65 115.71-1.38 114.39-3.4 114.39-6.6L114.39-6.6Q114.39-7.75 114.51-8.85 114.64-9.95 114.79-11.05L114.79-11.05Q114.94-12.15 115.09-13.2 115.24-14.25 115.34-15.2L115.34-15.2Q114.29-14.9 113.24-14.9L113.24-14.9Q112.14-14.9 112.14-15.8L112.14-15.8Q112.14-16.75 112.99-18.13 113.84-19.5 115.11-20.85 116.39-22.2 117.66-23.13 118.94-24.05 119.84-24.05L119.84-24.05Q120.94-24.05 120.94-22.15L120.94-22.15Q120.94-21.65 120.86-21.13 120.79-20.6 120.69-20.05L120.69-20.05Q121.64-20.25 122.61-20.4 123.59-20.55 124.49-20.55L124.49-20.55Q125.64-20.55 126.26-20.15 126.89-19.75 126.89-18.6L126.89-18.6Q126.89-17.4 126.31-16.2 125.74-15 125.04-15L125.04-15Q124.89-15 124.54-15.05 124.19-15.1 123.69-15.2L123.69-15.2Q123.04-15.35 122.04-15.5 121.04-15.65 119.64-15.65L119.64-15.65Q119.29-14.1 119.01-12.48 118.74-10.85 118.74-9.55L118.74-9.55Q118.74-6.65 120.19-5.6 121.64-4.55 124.39-4.55L124.39-4.55Q125.24-4.55 125.59-4.28 125.94-4 125.94-3.3L125.94-3.3Q125.94-1.65 124.24-0.5 122.54 0.65 120.09 0.65Z" fill="white"></path></g></svg></g></svg></g></svg></g></svg></g><g transform="matrix(1,0,0,1,132.9001843116207,0)"><svg viewBox="0 0 129.7196313767586 161.5805934692958" height="161.5805934692958" width="129.7196313767586"><g><svg xmlns="http://www.w3.org/2000/svg" xmlns:xlink="http://www.w3.org/1999/xlink" version="1.0" x="0" y="0" viewBox="14 15 57 71" enable-background="new 0 0 100 100" xml:space="preserve" height="161.5805934692958" width="129.7196313767586" class="icon-icon-0" data-fill-palette-color="accent" id="SvgjsSvg7471"><g fill="black"><polygon points="19,19 19,22 21,22 21,21 64,21 64,79 62,79 62,81 66,81 66,19  " fill="black"></polygon><polygon points="24,15 24,18 26,18 26,17 69,17 69,75 67,75 67,77 71,77 71,15  " fill="black"></polygon><g fill="black"><g fill="black"><path d="M45.776 22.711H14V86H61.428V38.362zM48.143 28.423L55.715 35.996H48.143zM59.062 83.634H16.366V25.077H45.776V38.363H59.061z" fill="black"></path></g><g fill="black"><rect x="20.797" y="30.756" width="16.564" height="2.367" fill="black"></rect></g><g fill="black"><rect x="20.797" y="35.725" width="16.564" height="2.367" fill="black"></rect></g><g fill="black"><rect x="20.797" y="48.031" width="33.131" height="2.367" fill="black"></rect></g><g fill="black"><rect x="20.797" y="43.298" width="33.131" height="2.367" fill="black"></rect></g><g fill="black"><rect x="20.797" y="52.764" width="33.131" height="2.366" fill="black"></rect></g><g fill="black"><rect x="20.797" y="57.496" width="33.131" height="2.367" fill="black"></rect></g><g fill="black"><rect x="20.797" y="62.23" width="33.131" height="2.365" fill="black"></rect></g><g fill="black"><rect x="20.797" y="75.482" width="18.931" height="2.367" fill="black"></rect></g><g fill="black"><rect x="20.797" y="66.489" width="9.465" height="2.367" fill="black"></rect></g></g></g></svg></g></svg></g><g></g></svg></g><defs><mask></mask></defs></svg><rect width="328.1842114628242" height="247.2" fill="black" stroke="none" visibility="hidden"></rect></g></mask><linearGradient x1="0.054" x2="0.941" y1="0.5" y2="0.5" id="c4fb4b51-0690-43bf-8eaa-ad1e5bf0062b"><stop stop-color="#0f3054" offset="0"></stop><stop stop-color="#3b8dcb" offset="0.498"></stop><stop stop-color="#0f3054" offset="1"></stop></linearGradient><rect width="328.1842114628242" height="247.2" fill="url(#c4fb4b51-0690-43bf-8eaa-ad1e5bf0062b)" mask="url(#15130c8a-9a7a-4afc-8629-a24908d1c33d)" data-fill-palette-color="primary"></rect><mask id="e6700760-ca29-4d35-8e1f-b1a4f93063e9"><g id="SvgjsG7485"><svg viewBox="0 0 328.1842114628242 247.2" height="247.2" width="328.1842114628242"><g><svg viewBox="0 0 395.52 297.9197066312113" height="247.2" width="328.1842114628242"><g transform="matrix(1,0,0,1,0,187.61976296923945)"><svg viewBox="0 0 395.52 110.29994366197182" height="110.29994366197182" width="395.52"><g id="SvgjsG7484"><svg viewBox="0 0 395.52 110.29994366197182" height="110.29994366197182" width="395.52" id="SvgjsSvg7483"><g><svg viewBox="0 0 395.52 110.29994366197182" height="110.29994366197182" width="395.52"><g transform="matrix(1,0,0,1,0,0)"><svg width="395.52" viewBox="2.1499999999999995 -34 124.74 34.65" height="110.29994366197182" data-palette-color="url(#c4fb4b51-0690-43bf-8eaa-ad1e5bf0062b)"><g class="wordmark-text-0" data-fill-palette-color="primary" id="SvgjsG7482"></g></svg></g></svg></g></svg></g></svg></g><g transform="matrix(1,0,0,1,132.9001843116207,0)"><svg viewBox="0 0 129.7196313767586 161.5805934692958" height="161.5805934692958" width="129.7196313767586"><g><svg xmlns="http://www.w3.org/2000/svg" xmlns:xlink="http://www.w3.org/1999/xlink" version="1.0" x="0" y="0" viewBox="14 15 57 71" enable-background="new 0 0 100 100" xml:space="preserve" height="161.5805934692958" width="129.7196313767586" class="icon-icon-0" data-fill-palette-color="accent" id="SvgjsSvg7481"><g fill="white"><polygon points="19,19 19,22 21,22 21,21 64,21 64,79 62,79 62,81 66,81 66,19  " fill="white"></polygon><polygon points="24,15 24,18 26,18 26,17 69,17 69,75 67,75 67,77 71,77 71,15  " fill="white"></polygon><g fill="white"><g fill="white"><path d="M45.776 22.711H14V86H61.428V38.362zM48.143 28.423L55.715 35.996H48.143zM59.062 83.634H16.366V25.077H45.776V38.363H59.061z" fill="white"></path></g><g fill="white"><rect x="20.797" y="30.756" width="16.564" height="2.367" fill="white"></rect></g><g fill="white"><rect x="20.797" y="35.725" width="16.564" height="2.367" fill="white"></rect></g><g fill="white"><rect x="20.797" y="48.031" width="33.131" height="2.367" fill="white"></rect></g><g fill="white"><rect x="20.797" y="43.298" width="33.131" height="2.367" fill="white"></rect></g><g fill="white"><rect x="20.797" y="52.764" width="33.131" height="2.366" fill="white"></rect></g><g fill="white"><rect x="20.797" y="57.496" width="33.131" height="2.367" fill="white"></rect></g><g fill="white"><rect x="20.797" y="62.23" width="33.131" height="2.365" fill="white"></rect></g><g fill="white"><rect x="20.797" y="75.482" width="18.931" height="2.367" fill="white"></rect></g><g fill="white"><rect x="20.797" y="66.489" width="9.465" height="2.367" fill="white"></rect></g></g></g></svg></g></svg></g><g></g></svg></g><defs><mask></mask></defs><mask><g id="SvgjsG7480"><svg viewBox="0 0 328.1842114628242 247.2" height="247.2" width="328.1842114628242"><g><svg viewBox="0 0 395.52 297.9197066312113" height="247.2" width="328.1842114628242"><g transform="matrix(1,0,0,1,0,187.61976296923945)"><svg viewBox="0 0 395.52 110.29994366197182" height="110.29994366197182" width="395.52"><g id="SvgjsG7479"><svg viewBox="0 0 395.52 110.29994366197182" height="110.29994366197182" width="395.52" id="SvgjsSvg7478"><g><svg viewBox="0 0 395.52 110.29994366197182" height="110.29994366197182" width="395.52"><g transform="matrix(1,0,0,1,0,0)"><svg width="395.52" viewBox="2.1499999999999995 -34 124.74 34.65" height="110.29994366197182" data-palette-color="url(#c4fb4b51-0690-43bf-8eaa-ad1e5bf0062b)"><g class="wordmark-text-0" data-fill-palette-color="primary" id="SvgjsG7477"><path d="M10.2 0.65L10.2 0.65Q8.35 0.65 6.8 0.3 5.25-0.05 4.25-1L4.25-1Q3.5-1.7 3.25-2.58 3-3.45 3-4.5L3-4.5Q3-6.2 3.3-7.9L3.3-7.9Q3.75-10.85 4.1-14.25 4.45-17.65 4.45-20.55L4.45-20.55Q4.45-21.45 4.38-22.6 4.3-23.75 4.15-24.75L4.15-24.75Q3.8-24.6 3.48-24.48 3.15-24.35 2.9-24.35L2.9-24.35Q2.45-24.35 2.3-24.8 2.15-25.25 2.15-25.8L2.15-25.8Q2.15-27.25 2.83-28.28 3.5-29.3 5.05-30.1L5.05-30.1Q6.7-31 9.38-31.68 12.05-32.35 14.8-32.35L14.8-32.35Q21.05-32.35 24.63-28.68 28.2-25 28.2-18.25L28.2-18.25Q28.2-14.4 27.03-10.98 25.85-7.55 23.55-4.93 21.25-2.3 17.9-0.83 14.55 0.65 10.2 0.65ZM11.8-4.95L11.8-4.95Q14.05-4.95 16.3-5.65 18.55-6.35 20.38-7.75 22.2-9.15 23.3-11.33 24.4-13.5 24.4-16.55L24.4-16.55Q24.4-20 23.05-22.25 21.7-24.5 19.45-25.6 17.2-26.7 14.45-26.7L14.45-26.7Q12.95-26.7 11.48-26.45 10-26.2 9.15-25.95L9.15-25.95Q9.1-23.65 8.88-21.48 8.65-19.3 8.35-17.25L8.35-17.25Q8.05-15.1 7.88-13.05 7.7-11 7.7-9L7.7-9Q7.7-6.5 8.72-5.73 9.75-4.95 11.8-4.95ZM40 0.65L40 0.65Q36.55 0.65 34.47-1.23 32.4-3.1 32.4-6.75L32.4-6.75Q32.4-8.45 32.87-10.05 33.35-11.65 34.15-13.05L34.15-13.05Q33.35-12.55 32.95-12.55L32.95-12.55Q32.35-12.55 32.12-13.23 31.9-13.9 31.9-14.55L31.9-14.55Q31.9-15.7 32.37-16.38 32.85-17.05 33.3-17.4L33.3-17.4Q34.35-18.3 36.6-19.38 38.85-20.45 42-20.45L42-20.45Q46.3-20.45 48.67-18.05 51.05-15.65 51.05-11.35L51.05-11.35Q51.05-8 49.65-5.28 48.25-2.55 45.77-0.95 43.3 0.65 40 0.65ZM41.55-4.45L41.55-4.45Q44.05-4.45 45.77-6.03 47.5-7.6 47.5-10.2L47.5-10.2Q47.5-12.9 45.75-14.05 44-15.2 41.7-15.2L41.7-15.2Q40.65-15.2 39.8-15 38.95-14.8 38.2-14.5L38.2-14.5Q37.5-13.5 36.95-12.25 36.4-11 36.4-9.5L36.4-9.5Q36.4-7 37.9-5.73 39.4-4.45 41.55-4.45ZM62.15 0.65L62.15 0.65Q58.65 0.65 56.67-1.48 54.7-3.6 54.7-7.4L54.7-7.4Q54.7-11.15 56.3-14.1 57.9-17.05 60.7-18.75 63.5-20.45 67.05-20.45L67.05-20.45Q69.45-20.45 70.84-19.65 72.25-18.85 72.25-17.45L72.25-17.45Q72.25-16.2 71.05-15L71.05-15Q70.59-14.55 69.87-14.18 69.15-13.8 68.75-13.8L68.75-13.8Q68.3-13.8 68-14.15L68-14.15Q67.5-14.7 66.7-15.2 65.9-15.7 64.45-15.7L64.45-15.7Q62-15.7 60.45-14.03 58.9-12.35 58.9-9.65L58.9-9.65Q58.9-7.2 60.3-5.7 61.7-4.2 64-4.2L64-4.2Q65.2-4.2 66.62-4.63 68.05-5.05 69.15-5.85L69.15-5.85Q69.7-6.35 70.3-6.35L70.3-6.35Q71.3-6.35 71.3-5.1L71.3-5.1Q71.3-3.45 69.65-1.95L69.65-1.95Q68.4-0.8 66.32-0.08 64.25 0.65 62.15 0.65ZM77.29 0.55L77.29 0.55Q76.74 0.55 76.24 0.23 75.74-0.1 75.84-0.65L75.84-0.65Q76.59-4.65 77.12-8.78 77.64-12.9 77.64-17.1L77.64-17.1Q77.64-20.8 77.39-23.8 77.14-26.8 75.79-29.55L75.79-29.55Q75.54-30.1 75.39-30.5 75.24-30.9 75.24-31.25L75.24-31.25Q75.24-32.2 76.34-33.1 77.44-34 78.69-34L78.69-34Q80.49-34 81.14-31.8 81.79-29.6 81.79-25.3L81.79-25.3Q81.79-20.15 81.19-16.32 80.59-12.5 80.14-10.5L80.14-10.5 80.34-10.4Q81.34-12.85 82.89-15.13 84.44-17.4 86.47-18.9 88.49-20.4 90.89-20.4L90.89-20.4Q93.24-20.4 94.52-19 95.79-17.6 95.79-15.65L95.79-15.65Q95.79-13.35 94.14-11.55 92.49-9.75 89.84-8.55L89.84-8.55Q90.49-6.85 91.69-5.88 92.89-4.9 94.74-4.9L94.74-4.9Q95.34-4.9 95.74-5L95.74-5Q96.39-5.15 96.39-3.75L96.39-3.75Q96.39-2.95 96.09-1.95 95.79-0.95 94.92-0.23 94.04 0.5 92.29 0.5L92.29 0.5Q89.94 0.5 88.47-0.88 86.99-2.25 86.17-4.28 85.34-6.3 84.89-8.3L84.89-8.3Q84.49-10.15 86.14-10.25L86.14-10.25Q87.89-10.45 89.09-11.3 90.29-12.15 90.29-13.55L90.29-13.55Q90.29-15.15 88.74-15.15L88.74-15.15Q87.74-15.15 86.72-14.43 85.69-13.7 84.82-12.7 83.94-11.7 83.39-10.75L83.39-10.75Q82.64-9.45 82.09-8.2 81.54-6.95 81.19-5.7L81.19-5.7 81.19-3.7Q81.19-1.85 80.12-0.65 79.04 0.55 77.29 0.55ZM104.59-24.85L104.59-24.85Q103.19-24.9 102.34-25.7 101.49-26.5 101.49-27.95L101.49-27.95Q101.54-29.5 102.54-30.48 103.54-31.45 105.09-31.4L105.09-31.4Q106.54-31.35 107.37-30.55 108.19-29.75 108.14-28.3L108.14-28.3Q108.09-26.8 107.14-25.83 106.19-24.85 104.59-24.85ZM104.64 0.5L104.64 0.5Q103.14 0.5 102.29-0.33 101.44-1.15 101.44-3.15L101.44-3.15Q101.44-4.3 101.67-5.4 101.89-6.5 102.19-7.55L102.19-7.55Q102.54-8.65 102.77-9.8 102.99-10.95 102.99-12.25L102.99-12.25Q102.99-13.15 102.74-13.98 102.49-14.8 101.64-15.2L101.64-15.2Q100.99-15.55 100.52-15.93 100.04-16.3 100.04-16.9L100.04-16.9Q100.04-17.6 100.69-18.4 101.34-19.2 102.42-19.78 103.49-20.35 104.64-20.35L104.64-20.35Q105.89-20.35 106.47-19.7 107.04-19.05 107.24-18.05 107.44-17.05 107.44-16L107.44-16Q107.44-14.4 107.19-12.88 106.94-11.35 106.69-10.05L106.69-10.05Q106.49-9.1 106.39-8.3 106.29-7.5 106.29-6.8L106.29-6.8Q106.29-5.55 106.89-4.93 107.49-4.3 108.59-3.75L108.59-3.75Q109.04-3.5 109.04-3L109.04-3Q109.04-2.6 108.64-1.75 108.24-0.9 107.27-0.2 106.29 0.5 104.64 0.5ZM120.09 0.65L120.09 0.65Q117.04 0.65 115.71-1.38 114.39-3.4 114.39-6.6L114.39-6.6Q114.39-7.75 114.51-8.85 114.64-9.95 114.79-11.05L114.79-11.05Q114.94-12.15 115.09-13.2 115.24-14.25 115.34-15.2L115.34-15.2Q114.29-14.9 113.24-14.9L113.24-14.9Q112.14-14.9 112.14-15.8L112.14-15.8Q112.14-16.75 112.99-18.13 113.84-19.5 115.11-20.85 116.39-22.2 117.66-23.13 118.94-24.05 119.84-24.05L119.84-24.05Q120.94-24.05 120.94-22.15L120.94-22.15Q120.94-21.65 120.86-21.13 120.79-20.6 120.69-20.05L120.69-20.05Q121.64-20.25 122.61-20.4 123.59-20.55 124.49-20.55L124.49-20.55Q125.64-20.55 126.26-20.15 126.89-19.75 126.89-18.6L126.89-18.6Q126.89-17.4 126.31-16.2 125.74-15 125.04-15L125.04-15Q124.89-15 124.54-15.05 124.19-15.1 123.69-15.2L123.69-15.2Q123.04-15.35 122.04-15.5 121.04-15.65 119.64-15.65L119.64-15.65Q119.29-14.1 119.01-12.48 118.74-10.85 118.74-9.55L118.74-9.55Q118.74-6.65 120.19-5.6 121.64-4.55 124.39-4.55L124.39-4.55Q125.24-4.55 125.59-4.28 125.94-4 125.94-3.3L125.94-3.3Q125.94-1.65 124.24-0.5 122.54 0.65 120.09 0.65Z" fill="black"></path></g></svg></g></svg></g></svg></g></svg></g><g transform="matrix(1,0,0,1,132.9001843116207,0)"><svg viewBox="0 0 129.7196313767586 161.5805934692958" height="161.5805934692958" width="129.7196313767586"><g><svg xmlns="http://www.w3.org/2000/svg" xmlns:xlink="http://www.w3.org/1999/xlink" version="1.0" x="0" y="0" viewBox="14 15 57 71" enable-background="new 0 0 100 100" xml:space="preserve" height="161.5805934692958" width="129.7196313767586" class="icon-icon-0" data-fill-palette-color="accent" id="SvgjsSvg7476"><g fill="black"><polygon points="19,19 19,22 21,22 21,21 64,21 64,79 62,79 62,81 66,81 66,19  " fill="black"></polygon><polygon points="24,15 24,18 26,18 26,17 69,17 69,75 67,75 67,77 71,77 71,15  " fill="black"></polygon><g fill="black"><g fill="black"><path d="M45.776 22.711H14V86H61.428V38.362zM48.143 28.423L55.715 35.996H48.143zM59.062 83.634H16.366V25.077H45.776V38.363H59.061z" fill="black"></path></g><g fill="black"><rect x="20.797" y="30.756" width="16.564" height="2.367" fill="black"></rect></g><g fill="black"><rect x="20.797" y="35.725" width="16.564" height="2.367" fill="black"></rect></g><g fill="black"><rect x="20.797" y="48.031" width="33.131" height="2.367" fill="black"></rect></g><g fill="black"><rect x="20.797" y="43.298" width="33.131" height="2.367" fill="black"></rect></g><g fill="black"><rect x="20.797" y="52.764" width="33.131" height="2.366" fill="black"></rect></g><g fill="black"><rect x="20.797" y="57.496" width="33.131" height="2.367" fill="black"></rect></g><g fill="black"><rect x="20.797" y="62.23" width="33.131" height="2.365" fill="black"></rect></g><g fill="black"><rect x="20.797" y="75.482" width="18.931" height="2.367" fill="black"></rect></g><g fill="black"><rect x="20.797" y="66.489" width="9.465" height="2.367" fill="black"></rect></g></g></g></svg></g></svg></g><g></g></svg></g><defs><mask></mask></defs></svg><rect width="328.1842114628242" height="247.2" fill="black" stroke="none" visibility="hidden"></rect></g></mask></svg><rect width="328.1842114628242" height="247.2" fill="black" stroke="none" visibility="hidden"></rect></g></mask><linearGradient x1="0" x2="1" y1="0.578" y2="0.595" id="59157b57-2115-49f7-8282-acc42253c261"><stop stop-color="#dede50" offset="0"></stop><stop stop-color="#559c49" offset="1"></stop></linearGradient><rect width="328.1842114628242" height="247.2" fill="url(#59157b57-2115-49f7-8282-acc42253c261)" mask="url(#e6700760-ca29-4d35-8e1f-b1a4f93063e9)" data-fill-palette-color="accent"></rect></svg><rect width="328.1842114628242" height="247.2" fill="none" stroke="none" visibility="hidden"></rect></g></svg></g></svg>
