<?xml version="1.0" encoding="UTF-8" standalone="no"?>
<!-- Generator: Adobe Illustrator 19.0.0, SVG Export Plug-In . SVG Version: 6.00 Build 0)  -->

<svg
   version="1.1"
   id="Layer_1"
   x="0px"
   y="0px"
   viewBox="0 0 512 512"
   style="enable-background:new 0 0 512 512;"
   xml:space="preserve"
   sodipodi:docname="favicon.svg"
   inkscape:version="1.2.2 (732a01da63, 2022-12-09)"
   inkscape:export-filename="favicon.png"
   inkscape:export-xdpi="96"
   inkscape:export-ydpi="96"
   xmlns:inkscape="http://www.inkscape.org/namespaces/inkscape"
   xmlns:sodipodi="http://sodipodi.sourceforge.net/DTD/sodipodi-0.dtd"
   xmlns="http://www.w3.org/2000/svg"
   xmlns:svg="http://www.w3.org/2000/svg"><defs
   id="defs173">
		
		
		<linearGradient
   id="XMLID_5_"
   gradientUnits="userSpaceOnUse"
   x1="304.496"
   y1="422.9102"
   x2="316.036"
   y2="326.2626">
			<stop
   offset="0"
   style="stop-color:#DCF1F3"
   id="stop156" />
			<stop
   offset="1"
   style="stop-color:#C2C2C9"
   id="stop158" />
		</linearGradient>
		
	</defs><sodipodi:namedview
   id="namedview171"
   pagecolor="#ffffff"
   bordercolor="#000000"
   borderopacity="0.25"
   inkscape:showpageshadow="2"
   inkscape:pageopacity="0.0"
   inkscape:pagecheckerboard="0"
   inkscape:deskcolor="#d1d1d1"
   showgrid="false"
   inkscape:zoom="1.4142136"
   inkscape:cx="219.91021"
   inkscape:cy="232.63813"
   inkscape:window-width="3840"
   inkscape:window-height="2054"
   inkscape:window-x="2869"
   inkscape:window-y="-11"
   inkscape:window-maximized="1"
   inkscape:current-layer="XMLID_4_" />
<style
   type="text/css"
   id="style150">
	.st0{fill:#FFFFFF;}
	.st1{fill:#C02223;}
	.st2{fill:#882425;}
	.st3{fill:url(#XMLID_5_);}
	.st4{fill:url(#XMLID_7_);}
</style>

<g
   id="XMLID_4_">
	<path
   id="XMLID_131_"
   class="st1"
   d="M 347.01402,14.355825 98.978019,69.02261 C 73.825483,74.547445 55.942464,96.792175 55.942464,122.52628 v 315.06096 c 0,22.39012 16.719895,41.14548 38.819234,43.76251 L 224.8861,498.36042 339.48636,384.26465 455.76603,265.15425 453.73057,84.870162 C 453.43979,62.916214 433.08513,46.632491 411.71274,51.284984 l -28.78729,6.251786 0.14539,-13.666697 C 383.36162,24.678542 365.62399,10.284894 347.01402,14.355825 Z"
   sodipodi:nodetypes="ccssccccccccc"
   style="stroke-width:1.45391" /><path
   id="XMLID_117_"
   class="st2"
   d="m 383.21622,57.53677 v 285.8375 L 456.05681,265.00885 454.02135,78.763767 C 453.87595,59.863016 436.28372,45.905539 417.81914,49.97647 Z"
   style="stroke-width:1.45391" /><polygon
   id="XMLID_18_"
   class="st3"
   points="234.7,422.6 368.5,387.7 393.5,262.2 "
   style="fill:url(#XMLID_5_)"
   transform="matrix(1.4556308,0,0,1.4548265,-116.73161,-116.45231)" />
	<linearGradient
   id="XMLID_7_"
   gradientUnits="userSpaceOnUse"
   x1="223.0838"
   y1="372.7559"
   x2="241.4174"
   y2="114.557"
   gradientTransform="matrix(1.4539039,0,0,1.4539039,-116.19976,-116.20474)">
		<stop
   offset="0"
   style="stop-color:#DCF1F3"
   id="stop163" />
		<stop
   offset="1"
   style="stop-color:#C2C2C9"
   id="stop165" />
	</linearGradient>
	<path
   id="XMLID_6_"
   class="st4"
   d="m 282.89686,214.84917 c 0,0 -22.24473,-28.93269 -38.67384,-36.78377 -10.46811,-4.94327 -26.02489,-6.83335 -38.23768,-0.72695 -18.02841,9.0142 -19.91848,34.31213 -3.34397,44.34406 3.92553,2.47165 9.15959,4.50711 15.99294,6.10641 36.63838,8.43264 97.12077,25.87949 89.70587,96.10304 0,0 -4.21633,65.86185 -73.56753,73.42215 -12.2128,1.30851 -24.57098,0.43617 -36.493,-2.32625 -16.42911,-3.63476 -45.50719,-11.04967 -59.75545,-19.91849 l -2.61703,-75.16682 h 6.97875 c 0,0 13.81208,33.43978 53.06749,49.57812 7.26952,2.90781 15.26599,4.07093 22.97168,2.90781 9.74116,-1.45391 21.22699,-6.68796 25.87949,-22.53551 0,0 7.85108,-23.11707 -32.85823,-35.76604 -32.56744,-10.17733 -63.24481,-20.64543 -75.89378,-54.95757 -5.961,-16.28371 -6.97874,-34.31212 -2.90781,-51.61358 5.37944,-22.53551 20.79082,-54.23062 64.40794,-67.89732 0,0 57.28381,-15.55677 96.53922,5.52484 l -1.74468,89.70587 z"
   style="fill:url(#XMLID_7_);stroke-width:1.45391" />
</g>
</svg>
