<svg xmlns="http://www.w3.org/2000/svg" xmlns:svg="http://www.w3.org/2000/svg" xmlns:xlink="http://www.w3.org/1999/xlink" id="svg745" width="376.207" height="359.846" version="1.1" viewBox="0 0 99.538 95.209" xml:space="preserve"><defs id="defs742"><linearGradient id="linearGradient72198"><stop style="stop-color:#ccd6d7;stop-opacity:1" id="stop72194" offset="0"/><stop style="stop-color:#0f3a3f;stop-opacity:1" id="stop72196" offset="1"/></linearGradient><linearGradient id="linearGradient71928"><stop style="stop-color:#4b0005;stop-opacity:1" id="stop71924" offset="0"/><stop style="stop-color:#8f000c;stop-opacity:1" id="stop71926" offset="1"/></linearGradient><linearGradient id="linearGradient71920"><stop style="stop-color:#4b0005;stop-opacity:1" id="stop71916" offset="0"/><stop style="stop-color:#8f000c;stop-opacity:1" id="stop71918" offset="1"/></linearGradient><linearGradient id="linearGradient69598"><stop style="stop-color:#6a0007;stop-opacity:1" id="stop69594" offset="0"/><stop style="stop-color:#b8000f;stop-opacity:1" id="stop69596" offset="1"/></linearGradient><linearGradient id="linearGradient46361"><stop style="stop-color:#f7f6f8;stop-opacity:1" id="stop46359" offset="0"/><stop style="stop-color:#b7b7b5;stop-opacity:1" id="stop46357" offset="1"/></linearGradient><linearGradient id="linearGradient40554"><stop style="stop-color:#f4f2f4;stop-opacity:1" id="stop40550" offset="0"/><stop style="stop-color:#57767b;stop-opacity:1" id="stop40552" offset="1"/></linearGradient><linearGradient id="linearGradient39095"><stop style="stop-color:#285459;stop-opacity:1" id="stop39093" offset="0"/><stop style="stop-color:#a6b6af;stop-opacity:1" id="stop39091" offset="1"/></linearGradient><linearGradient id="linearGradient36672"><stop style="stop-color:#da453f;stop-opacity:1" id="stop36668" offset="0"/><stop style="stop-color:#a60008;stop-opacity:1" id="stop36670" offset="1"/></linearGradient><linearGradient id="linearGradient19524"><stop style="stop-color:#3a4b4f;stop-opacity:1" id="stop19522" offset="0"/><stop style="stop-color:#617979;stop-opacity:.97461927" id="stop19520" offset="1"/></linearGradient><linearGradient id="linearGradient17996"><stop style="stop-color:#401016;stop-opacity:1" id="stop17994" offset="0"/><stop style="stop-color:#761f19;stop-opacity:1" id="stop17992" offset="1"/></linearGradient><linearGradient id="linearGradient15569"><stop style="stop-color:#8ea8ad;stop-opacity:1" id="stop15565" offset="0"/><stop style="stop-color:#e9e7eb;stop-opacity:1" id="stop15567" offset="1"/></linearGradient><linearGradient id="linearGradient15557"><stop style="stop-color:#9b0e11;stop-opacity:1" id="stop15553" offset="0"/><stop style="stop-color:#370707;stop-opacity:1" id="stop15555" offset="1"/></linearGradient><linearGradient id="linearGradient15559" x1="120.067" x2="135.163" y1="63.258" y2="78.079" gradientUnits="userSpaceOnUse" xlink:href="#linearGradient15557"/><linearGradient id="linearGradient15571" x1="127.97" x2="133.89" y1="101.661" y2="104.77" gradientUnits="userSpaceOnUse" xlink:href="#linearGradient15569"/><linearGradient id="linearGradient17998" x1="117.928" x2="130.674" y1="86.055" y2="76.946" gradientUnits="userSpaceOnUse" xlink:href="#linearGradient17996"/><linearGradient id="linearGradient19528" x1="130.982" x2="135.721" y1="82.403" y2="86.452" gradientUnits="userSpaceOnUse" xlink:href="#linearGradient19524"/><linearGradient id="linearGradient36674" x1="63.798" x2="96.637" y1="74.818" y2="120.293" gradientUnits="userSpaceOnUse" xlink:href="#linearGradient36672"/><linearGradient id="linearGradient39097" x1="120.545" x2="128.042" y1="124.769" y2="126.07" gradientUnits="userSpaceOnUse" xlink:href="#linearGradient39095"/><linearGradient id="linearGradient40556" x1="113.846" x2="119.659" y1="114.043" y2="128.502" gradientUnits="userSpaceOnUse" xlink:href="#linearGradient40554"/><linearGradient id="linearGradient46363" x1="73.993" x2="94.845" y1="114.139" y2="71.247" gradientUnits="userSpaceOnUse" xlink:href="#linearGradient46361"/><linearGradient id="linearGradient69600" x1="95.854" x2="103.778" y1="114.667" y2="120.189" gradientUnits="userSpaceOnUse" xlink:href="#linearGradient69598"/><linearGradient id="linearGradient71922" x1="98.58" x2="118.097" y1="87.187" y2="101.194" gradientUnits="userSpaceOnUse" xlink:href="#linearGradient71920"/><linearGradient id="linearGradient71930" x1="78.278" x2="92.313" y1="97.433" y2="104.335" gradientUnits="userSpaceOnUse" xlink:href="#linearGradient71928"/><linearGradient id="linearGradient72200" x1="125.766" x2="123.333" y1="138.468" y2="126.033" gradientUnits="userSpaceOnUse" xlink:href="#linearGradient72198"/></defs><g id="layer5" style="display:inline" transform="translate(-51.420144,-44.470286)"><path style="display:inline;fill:url(#linearGradient72200);fill-opacity:1;stroke:none;stroke-width:.264583px;stroke-linecap:butt;stroke-linejoin:miter;stroke-opacity:1" id="path72192" d="m 84.146049,134.73858 c 0,0 11.721038,2.48294 17.938661,2.91673 6.21763,0.43378 14.75251,0.59994 22.41237,-0.43379 8.01008,-1.081 13.19907,-2.22733 14.50043,-2.66112 1.30136,-0.43379 4.00784,-1.24297 4.15244,-2.25514 0.1446,-1.01217 -3.4703,-2.74733 -6.21763,-3.32571 -2.74732,-0.57838 -12.72444,-1.44596 -14.89337,-1.44596 -2.16894,0 -37.892901,7.20499 -37.892901,7.20499 z"/></g><g id="layer2" style="display:inline" transform="translate(-51.420144,-44.470286)"><path style="display:inline;fill:url(#linearGradient40556);fill-opacity:1;stroke:none;stroke-width:.264583px;stroke-linecap:butt;stroke-linejoin:miter;stroke-opacity:1" id="path960" d="m 84.460552,134.86721 35.165798,-6.85679 16.15467,-42.7383 z"/><path style="fill:url(#linearGradient15571);fill-opacity:1;stroke:none;stroke-width:.264583px;stroke-linecap:butt;stroke-linejoin:miter;stroke-opacity:1" id="path964" d="m 135.71493,85.428056 0.3984,45.049024 -9.66213,-20.46173 z"/><path style="display:inline;fill:url(#linearGradient39097);fill-opacity:1;stroke:none;stroke-width:.264583px;stroke-linecap:butt;stroke-linejoin:miter;stroke-opacity:1" id="path966" d="m 119.60518,128.00293 16.5337,2.48693 -9.68769,-20.5512 z"/><path style="display:inline;fill:url(#linearGradient15559);fill-opacity:1;stroke:none;stroke-width:.264583px;stroke-linecap:butt;stroke-linejoin:miter;stroke-opacity:1" id="path968" d="m 118.42209,57.022622 12.70423,-2.766809 -0.0785,25.087175 -12.43878,-13.376518 z"/><path style="display:inline;fill:url(#linearGradient19528);fill-opacity:1;stroke:none;stroke-width:.264583px;stroke-linecap:butt;stroke-linejoin:miter;stroke-opacity:1" id="path970" d="m 135.72114,85.386768 -4.84219,-6.459493 0.0305,11.126604 z"/><path style="display:inline;fill:url(#linearGradient17998);fill-opacity:1;stroke:none;stroke-width:.264583px;stroke-linecap:butt;stroke-linejoin:miter;stroke-opacity:1" id="path972" d="m 119.10273,65.682415 11.96883,13.44935 -0.0899,10.819868 -11.88577,11.430427 z"/><path style="display:inline;fill:url(#linearGradient36674);fill-opacity:1;stroke:none;stroke-width:.264583px;stroke-linecap:butt;stroke-linejoin:miter;stroke-opacity:1" id="path958" d="M 62.145635,130.15618 62.043392,65.435258 c 0,0 0.179321,-2.778132 1.89516,-4.036097 1.874923,-1.374597 4.341768,-1.894096 4.341768,-1.894096 l 50.91788,-11.349167 -0.0113,53.144272 -34.733274,33.56547 z"/></g><g id="layer3" style="display:inline" transform="translate(-51.420144,-44.470286)"><path style="display:inline;fill:url(#linearGradient69600);fill-opacity:1;stroke:none;stroke-width:.264583px;stroke-linecap:butt;stroke-linejoin:miter;stroke-opacity:1" id="path54894" d="m 94.780881,91.406803 16.870379,17.074877 -23.723345,23.00249 -18.122131,-17.99816 5.497473,-2.80607 18.404054,-0.0511 2.35163,-8.23071 z"/><path style="display:inline;fill:url(#linearGradient71930);fill-opacity:1;stroke:none;stroke-width:.264583px;stroke-linecap:butt;stroke-linejoin:miter;stroke-opacity:1" id="path54892" d="m 72.440405,92.224764 16.15467,15.745686 4.089788,-6.79927 z"/><path style="display:inline;fill:url(#linearGradient71922);fill-opacity:1;stroke:none;stroke-width:.264583px;stroke-linecap:butt;stroke-linejoin:miter;stroke-opacity:1" id="path54890" d="m 95.138739,84.965385 1.124691,-14.109776 22.92453,22.286787 0.008,8.164604 -3.28863,3.16649 z"/><path style="display:inline;fill:url(#linearGradient46363);fill-opacity:1;stroke:none;stroke-width:.264583px;stroke-linecap:butt;stroke-linejoin:miter;stroke-opacity:1" id="path46355" d="m 95.138739,84.965385 h 1.226936 l -0.05112,-14.109776 c 0,0 -5.776827,-3.220709 -12.167126,-2.40275 -6.390296,0.817957 -8.151582,2.1248 -10.58233,4.396523 -1.90229,1.777838 -2.913974,3.527446 -3.987546,7.157132 -0.512646,1.733226 -0.281963,5.988892 0.613471,8.537436 0.664591,1.891528 2.453873,4.294281 4.958868,6.134686 2.662335,1.956002 8.281825,3.527443 8.281825,3.527443 0,0 5.134614,1.887351 5.572338,4.294281 0.308137,1.69437 -0.102243,3.22071 -1.635914,4.95887 -1.258314,1.42609 -3.62969,1.99377 -6.288054,1.07357 -2.658364,-0.92021 -6.139514,-3.85065 -7.106009,-4.90775 -0.817958,-0.89464 -2.820665,-3.06173 -2.890231,-4.294021 -0.01209,-0.214205 -1.229505,-0.0963 -1.229505,-0.0963 l -0.0723,14.256941 5.879073,2.24938 c 0,0 5.214483,1.78929 8.946415,1.43143 3.731934,-0.35786 7.617235,-0.51122 11.604778,-5.16336 3.987542,-4.65213 3.680812,-12.831715 2.147141,-15.899056 -1.533673,-3.067344 -3.561212,-6.138812 -10.480087,-8.281826 -5.776829,-1.789283 -7.872846,-3.01622 -8.128458,-4.396524 -0.255611,-1.380305 0.0091,-4.253646 2.760607,-5.214481 3.220711,-1.124693 5.623462,-0.05112 7.05489,1.12469 1.431425,1.175817 5.572339,5.623462 5.572339,5.623462 z"/></g></svg>