<svg viewBox="206.0070297029703 285.7344 658.5080198019803 219.06303999999997" version="1.1" id="svg2" xml:space="preserve" xmlns="http://www.w3.org/2000/svg" style="max-height: 500px" width="658.5080198019803" height="219.06303999999997"><metadata id="metadata8">image/svg+xml</metadata><defs id="defs6"><clipPath clipPathUnits="userSpaceOnUse" id="clipPath18"><path d="M 0,595.28 H 841.89 V 0 H 0 Z" id="path16"/></clipPath></defs><g id="g10" transform="matrix(1.3333333,0,0,-1.3333333,0,793.70667)"><g id="g12"><g id="g14" clip-path="url(#clipPath18)"><g id="g20" transform="translate(619.5215,294.9912)"><path d="m 0,0 c 0,7.016 -5.055,10.452 -12.692,16.163 -7.448,5.569 -20.122,13.76 -27.667,18.254 -7.545,4.496 -19.811,11.423 -28.287,15.481 -8.542,4.088 -15.369,6.795 -19.499,6.795 -4.122,0 -6.99,-1.298 -9.017,-4.001 -2.027,-2.696 -3.233,-6.65 -4.043,-11.651 -0.811,-4.996 -1.236,-11.044 -1.46,-17.946 C -102.881,16.187 -102.898,0 -102.898,0 c 0,0 0.017,-16.187 0.233,-23.094 0.224,-6.903 0.649,-12.953 1.46,-17.947 0.81,-5 2.016,-8.954 4.043,-11.651 2.027,-2.702 4.895,-4.001 9.017,-4.001 4.13,0 10.957,2.708 19.499,6.796 8.476,4.057 20.742,10.985 28.287,15.48 7.545,4.494 20.219,12.685 27.667,18.253 C -5.055,-10.452 0,-7.017 0,0" style="fill:#ba151b;fill-opacity:1;fill-rule:nonzero;stroke:none" id="path22"/></g><g id="g24" transform="translate(608.2402,303.5513)"><path d="M 0,0 H -1.583 C -2.322,0 -2.93,-0.606 -2.93,-1.35 v -14.429 c 0,-0.742 0.608,-1.349 1.347,-1.349 H 0 c 0.741,0 1.348,0.607 1.348,1.349 V -1.35 C 1.348,-0.606 0.741,0 0,0" style="fill:#ed1c24;fill-opacity:1;fill-rule:nonzero;stroke:none" id="path26"/></g><g id="g28" transform="translate(559.5586,307.8306)"><path d="m 0,0 h 1.59 c 0.743,0 1.35,0.607 1.35,1.349 v 22.993 c 0,0.747 -0.607,1.347 -1.35,1.347 H 0 c -0.74,0 -1.35,-0.6 -1.35,-1.347 V 1.349 C -1.35,0.607 -0.74,0 0,0" style="fill:#ed1c24;fill-opacity:1;fill-rule:nonzero;stroke:none" id="path30"/></g><g id="g32" transform="translate(573.9873,269.2979)"><path d="M 0,0 H -1.579 C -2.33,0 -2.93,-0.607 -2.93,-1.35 v -1.582 c 0,-0.742 0.6,-1.349 1.351,-1.349 H 0 c 0.745,0 1.353,0.607 1.353,1.349 V -1.35 C 1.353,-0.607 0.745,0 0,0" style="fill:#ed1c24;fill-opacity:1;fill-rule:nonzero;stroke:none" id="path34"/></g><g id="g36" transform="translate(541.085,329.2403)"><path d="M 0,0 H -4.284 L -4.28,8.562 H 0 Z M -15.776,-12.842 H 2.937 c 0.739,0 1.346,0.607 1.346,1.349 v 7.214 h 7.214 c 0.746,0 1.348,0.604 1.348,1.339 V 7.211 c 0,0.749 -0.602,1.354 -1.348,1.354 H 9.909 C 9.171,8.565 8.563,7.96 8.563,7.211 V 0 h -4.28 v 11.503 c 0,0.742 -0.607,1.342 -1.346,1.342 H -7.222 c -0.741,0 -1.338,-0.606 -1.338,-1.347 V -2.94 c 0,-0.735 0.609,-1.339 1.355,-1.339 H 0 v -4.28 h -12.843 v 15.77 c 0,0.749 -0.603,1.351 -1.349,1.351 h -1.584 c -0.743,0 -1.351,-0.602 -1.351,-1.351 v -15.804 -2.9 c 0,-0.742 0.613,-1.349 1.351,-1.349" style="fill:#ed1c24;fill-opacity:1;fill-rule:nonzero;stroke:none" id="path38"/></g><g id="g40" transform="translate(599.6797,307.8306)"><path d="m 0,0 h -1.587 c -0.737,0 -1.345,-0.606 -1.345,-1.347 v -20.061 h -7.218 c -0.742,0 -1.349,-0.611 -1.349,-1.345 v -7.221 h -4.282 l -0.002,7.221 c 0,0.742 -0.606,1.351 -1.346,1.351 H -31.56 c -0.738,0 -1.345,-0.609 -1.345,-1.351 v -1.586 c 0,-0.744 0.607,-1.35 1.345,-1.35 h 11.499 v -4.285 h -17.12 v 12.849 h 11.489 c 0.745,0 1.352,0.61 1.352,1.346 v 1.586 c 0,0.742 -0.607,1.354 -1.352,1.354 h -14.429 c -0.74,0 -1.35,-0.608 -1.35,-1.354 V -32.9 c 0,-0.736 0.61,-1.353 1.35,-1.353 h 20.06 v -2.932 c 0,-0.742 0.608,-1.348 1.348,-1.348 h 1.588 c 0.738,0 1.344,0.606 1.344,1.348 v 2.932 h 7.208 c 0.742,0 1.353,0.625 1.353,1.365 v 7.199 H 0 c 0.744,0 1.35,0.606 1.35,1.35 V -1.347 C 1.35,-0.606 0.744,0 0,0" style="fill:#ed1c24;fill-opacity:1;fill-rule:nonzero;stroke:none" id="path42"/></g><g id="g44" transform="translate(565.4287,269.2979)"><path d="m 0,0 h -10.163 c -0.74,0 -1.338,-0.607 -1.338,-1.35 v -7.216 h -25.686 v 4.285 h 20.061 c 0.737,0 1.345,0.607 1.345,1.349 v 1.577 c 0,0.748 -0.608,1.355 -1.345,1.355 h -23.007 c -0.737,0 -1.338,-0.602 -1.338,-1.344 v -10.158 c 0,-0.74 0.617,-1.344 1.355,-1.344 h 31.549 c 0.746,0 1.347,0.604 1.347,1.344 v 7.217 h 4.29 v -2.936 c 0,-0.742 0.591,-1.345 1.329,-1.345 H 0 c 0.742,0 1.346,0.603 1.346,1.345 V -1.35 C 1.346,-0.607 0.742,0 0,0" style="fill:#ed1c24;fill-opacity:1;fill-rule:nonzero;stroke:none" id="path46"/></g><g id="g48" transform="translate(531.1357,252.1709)"><path d="m 0,0 h -1.51 c -0.763,0 -1.384,-0.623 -1.384,-1.383 v -1.519 c 0,-0.76 0.621,-1.381 1.384,-1.381 H 0 c 0.766,0 1.386,0.621 1.386,1.381 v 1.519 C 1.386,-0.623 0.766,0 0,0" style="fill:#ed1c24;fill-opacity:1;fill-rule:nonzero;stroke:none" id="path50"/></g><g id="g52" transform="translate(539.7051,252.1709)"><path d="m 0,0 h -1.52 c -0.755,0 -1.384,-0.623 -1.384,-1.383 v -1.519 c 0,-0.76 0.629,-1.381 1.384,-1.381 H 0 c 0.764,0 1.38,0.621 1.38,1.381 v 1.519 C 1.38,-0.623 0.764,0 0,0" style="fill:#ed1c24;fill-opacity:1;fill-rule:nonzero;stroke:none" id="path54"/></g><g id="g56" transform="translate(525.3447,277.8545)"><path d="m 0,0 c -0.764,0 -1.387,-0.623 -1.387,-1.383 v -1.508 c 0,-0.761 0.623,-1.386 1.387,-1.386 h 1.512 c 0.765,0 1.382,0.625 1.382,1.386 v 1.508 C 2.894,-0.623 2.277,0 1.512,0 Z" style="fill:#ed1c24;fill-opacity:1;fill-rule:nonzero;stroke:none" id="path58"/></g><g id="g60" transform="translate(533.9033,277.8565)"><path d="m 0,0 c -0.761,0 -1.382,-0.619 -1.382,-1.379 v -1.514 c 0,-0.763 0.621,-1.386 1.382,-1.386 h 1.513 c 0.765,0 1.384,0.623 1.384,1.386 v 1.514 C 2.897,-0.619 2.278,0 1.513,0 Z" style="fill:#ed1c24;fill-opacity:1;fill-rule:nonzero;stroke:none" id="path62"/></g><g id="g64" transform="translate(541.085,276.4776)"><path d="M 0,0 V -1.514 C 0,-2.275 0.625,-2.9 1.382,-2.9 h 8.556 1.52 0.037 c 0.748,0 1.348,0.611 1.348,1.353 V 17.16 c 0,0.746 -0.6,1.354 -1.348,1.354 H 9.909 c -0.738,0 -1.346,-0.608 -1.346,-1.354 V 1.379 H 1.382 C 0.625,1.379 0,0.76 0,0" style="fill:#ed1c24;fill-opacity:1;fill-rule:nonzero;stroke:none" id="path66"/></g><g id="g68" transform="translate(580.999,294.9912)"><path d="m 0,0 c -0.758,0 -1.38,-0.625 -1.38,-1.387 v -1.519 c 0,-0.758 0.622,-1.379 1.38,-1.379 h 1.516 c 0.764,0 1.381,0.621 1.381,1.379 v 1.519 C 2.897,-0.625 2.28,0 1.516,0 Z" style="fill:#ed1c24;fill-opacity:1;fill-rule:nonzero;stroke:none" id="path70"/></g><g id="g72" transform="translate(576.7197,320.6812)"><path d="M 0,0 H 1.515 C 2.277,0 2.899,0.616 2.899,1.376 V 2.89 c 0,0.764 -0.622,1.39 -1.384,1.39 L 0,4.28 c -0.759,0 -1.38,-0.626 -1.38,-1.39 V 1.376 C -1.38,0.616 -0.759,0 0,0" style="fill:#ed1c24;fill-opacity:1;fill-rule:nonzero;stroke:none" id="path74"/></g><g id="g76" transform="translate(552.543,320.6812)"><path d="m 0,0 h -1.509 c -0.764,0 -1.387,-0.626 -1.387,-1.39 v -1.514 c 0,-0.762 0.623,-1.379 1.387,-1.379 H 0 c 0.767,0 1.385,0.617 1.385,1.379 V -1.39 C 1.385,-0.626 0.767,0 0,0" style="fill:#ed1c24;fill-opacity:1;fill-rule:nonzero;stroke:none" id="path78"/></g><g id="g80" transform="translate(543.9854,303.5474)"><path d="M 0,0 H -1.515 C -2.273,0 -2.9,-0.623 -2.9,-1.38 V -2.9 c 0,-0.756 0.627,-1.38 1.385,-1.38 H 0 c 0.764,0 1.383,0.624 1.383,1.38 v 1.52 C 1.383,-0.623 0.764,0 0,0" style="fill:#ed1c24;fill-opacity:1;fill-rule:nonzero;stroke:none" id="path82"/></g><g id="g84" transform="translate(591.0771,294.9912)"><path d="m 0,0 h -1.511 c -0.758,0 -1.385,-0.625 -1.385,-1.387 v -1.515 c 0,-0.762 0.627,-1.383 1.385,-1.383 H 0 c 0.771,0 1.383,0.621 1.383,1.383 v 1.515 C 1.383,-0.625 0.771,0 0,0" style="fill:#ed1c24;fill-opacity:1;fill-rule:nonzero;stroke:none" id="path86"/></g><g id="g88" transform="translate(571.0576,307.8306)"><path d="m 0,0 h 12.841 v 4.281 h 4.282 v -8.56 L 0,-4.279 Z m -45.749,-25.689 h 18.713 c 0.739,0 1.347,0.606 1.347,1.35 v 10.146 c 0,0.742 -0.606,1.348 -1.347,1.348 h -7.217 V 0 h 12.843 v -7.183 c 0,-0.756 0.622,-1.38 1.387,-1.38 h 40.084 c 0.742,0 1.341,0.612 1.341,1.35 V 7.222 c 0,0.737 -0.597,1.345 -1.341,1.345 H 9.922 C 9.18,8.567 8.562,7.959 8.562,7.222 V 4.281 H 0 v 15.78 c 0,0.741 -0.605,1.349 -1.35,1.349 h -1.588 c -0.738,0 -1.345,-0.608 -1.345,-1.349 V -4.279 H -17.13 v 7.217 c 0,0.739 -0.603,1.343 -1.348,1.343 h -18.709 c -0.743,0 -1.345,-0.604 -1.345,-1.343 v -18.723 c 0,-0.736 0.602,-1.34 1.345,-1.34 h 7.214 v -4.277 h -12.842 l -0.004,24.334 c 0,0.739 -0.604,1.349 -1.348,1.349 h -1.582 c -0.739,0 -1.351,-0.597 -1.351,-1.343 v -27.277 c 0,-0.744 0.612,-1.35 1.351,-1.35" style="fill:#ed1c24;fill-opacity:1;fill-rule:nonzero;stroke:none" id="path90"/></g><g id="g92" transform="translate(358.9775,323.981)"><path d="M 0,0 C 0,0.434 0.367,0.768 0.768,0.768 H 3.344 C 3.779,0.768 4.181,0.434 4.181,0 v -2.678 c 0,-0.366 -0.402,-0.7 -0.837,-0.7 H 0.768 C 0.367,-3.378 0,-3.044 0,-2.678 Z m -115.943,-56.417 7.089,19.728 5.12,12.842 4.982,-12.842 6.919,-19.728 z m 19.662,39.094 c -1,2.139 -1.47,3.344 -4.547,3.344 h -5.918 c -2.71,0 -3.646,-1.205 -4.447,-3.344 -0.635,-1.705 -25.385,-65.313 -25.385,-65.313 0,0 0,-2.106 2.374,-2.106 h 6.323 c 1.402,0 2.037,1.504 2.037,1.504 l 6.859,18.826 h 30.498 l 6.787,-18.826 c 0,0 0.605,-1.504 2.076,-1.504 h 6.018 c 2.576,0 2.576,2.106 2.576,2.106 0,0 -24.582,63.608 -25.251,65.313 m 211.422,-58.76 H 99.355 v 24.179 h 15.786 c 7.458,0 11.938,-5.115 11.938,-12.24 0,-7.389 -4.48,-11.939 -11.938,-11.939 m -15.786,53.476 h 14.616 c 6.553,0 10.734,-4.517 10.734,-10.836 0,-5.918 -4.181,-10.334 -10.734,-10.334 H 99.355 Z m 26.217,-24.748 c 5.722,2.309 9.268,7.994 9.268,15.115 0,11.739 -8.664,18.261 -20.869,18.261 H 92.433 c -2.61,0 -3.211,-2.743 -3.211,-3.344 v -64.413 c 0,-0.9 0,-3.006 3.211,-3.006 h 22.104 c 12.542,0 22.675,6.586 22.675,20.33 0,7.393 -4.247,14.582 -11.64,17.057 M 72.434,-69.427 c -0.802,1.437 -2.073,0.836 -2.874,0 -3.012,-2.709 -10.135,-7.188 -19.733,-7.188 -15.547,0 -26.286,12.471 -26.286,27.752 0,14.582 10.133,26.723 25.687,26.723 8.326,0 14.278,-3.21 17.79,-5.586 2.542,-1.537 3.111,-1.537 4.614,0 0.802,1.507 2.041,3.58 2.041,3.58 0,0 1.471,2.006 0,3.043 -3.544,2.275 -11.706,7.993 -24.445,7.993 -20.603,0 -35.818,-15.485 -35.818,-35.753 0,-20.564 14.547,-36.683 35.818,-36.683 13.744,0 22.404,6.521 25.916,9.463 1.537,0.97 0.903,1.875 0.299,3.078 -0.299,0.5 -1.77,2.308 -3.009,3.578 m -109.12,-6.656 H -49.26 v 53.476 h 12.574 c 16.151,0 26.284,-9.633 26.284,-26.924 0,-16.918 -10.133,-26.552 -26.284,-26.552 m 1.238,62.104 h -20.937 c -0.634,0 -2.406,-0.604 -2.406,-3.344 v -64.413 c 0,-3.006 2.406,-3.006 2.406,-3.006 h 20.937 c 21.135,0 35.75,13.209 35.75,35.211 0,22.407 -14.615,35.552 -35.75,35.552 M -123.4,-2.878 c 0,0.436 0.368,0.703 0.769,0.703 h 2.275 c 0.366,0 0.735,-0.267 0.735,-0.703 v -2.376 c 0,-0.366 -0.369,-0.668 -0.735,-0.668 h -2.275 c -0.401,0 -0.769,0.302 -0.769,0.668 z m -6.186,0 c 0,0.436 0.334,0.703 0.77,0.703 h 2.203 c 0.435,0 0.769,-0.267 0.769,-0.703 v -2.376 c 0,-0.366 -0.368,-0.668 -0.769,-0.668 h -2.203 c -0.436,0 -0.77,0.302 -0.77,0.668 z m -5.42,13.578 c 0,1.003 0.2,2.978 0.468,4.413 0.102,0.503 0.204,0.669 0.704,0.669 h 2.574 c 0.367,0 0.568,-0.2 0.568,-0.634 -0.102,-0.97 -0.201,-2.072 -0.201,-2.708 0,-4.65 0.768,-8.126 6.757,-8.126 1.203,0 2.173,0.067 3.111,0.201 0.099,2.238 0.099,3.275 0.099,5.082 v 2.94 c 0,5.12 3.042,7.426 8.794,7.426 1.572,0 3.513,-0.166 4.752,-0.434 0.366,-0.101 0.568,-0.235 0.568,-0.669 V 4.381 c 0,-0.401 -0.268,-0.704 -0.669,-0.704 h -2.945 c -0.367,0 -0.635,0.303 -0.635,0.704 v 11.535 c -0.801,0.101 -1.135,0.134 -1.773,0.134 -2.54,0 -3.843,-0.969 -3.843,-3.913 V 6.619 c 0,-1.603 -0.034,-3.678 -0.137,-5.25 0,-0.4 -0.235,-0.634 -0.736,-0.735 -1.871,-0.3 -4.279,-0.5 -6.685,-0.5 -7.66,0 -10.771,3.645 -10.771,10.566 m 29.429,-11.773 c 0,0.338 0.202,0.504 0.569,0.504 h 0.702 c 2.508,0 3.411,0.235 3.411,2.975 V 18.76 c 0,0.368 0.268,0.636 0.668,0.636 h 2.912 c 0.366,0 0.633,-0.268 0.633,-0.636 V 2.906 c 0,-1.703 -0.099,-3.274 -0.767,-4.581 -1.035,-1.903 -2.745,-2.606 -5.552,-2.606 -0.367,0 -1.539,0 -2.106,0.101 -0.302,0.067 -0.47,0.267 -0.47,0.634 z m 13.812,29.53 c 0,0.368 0.3,0.668 0.702,0.668 h 2.977 c 0.434,0 0.668,-0.3 0.668,-0.668 V 9.663 c 0,-1.503 0.636,-1.707 1.876,-1.707 h 1.102 V 3.677 h -2.342 c -3.042,0 -4.983,0.803 -4.983,4.715 z M -77.42,0 c 0,0.434 0.368,0.768 0.77,0.768 h 2.576 c 0.433,0 0.834,-0.334 0.834,-0.768 v -2.678 c 0,-0.366 -0.401,-0.7 -0.834,-0.7 h -2.576 c -0.402,0 -0.77,0.334 -0.77,0.7 z m -7.02,3.677 c -0.539,0 -1.102,0.236 -1.102,0.4 v 3.478 c 0,0.235 0.598,0.401 1.102,0.401 h 14.545 l -1.571,3.48 c -1.305,2.843 -3.577,4.648 -7.826,4.648 -0.3,0 -1.302,-0.034 -1.803,-0.067 -0.471,-0.035 -0.704,0.133 -0.704,0.537 v 2.472 c 0,0.335 0.233,0.536 0.668,0.637 1.106,0.233 2.107,0.3 3.277,0.3 4.881,0 8.393,-1.939 11.071,-7.992 0.701,-1.605 1.337,-3.209 1.572,-3.543 0.232,-0.368 0.4,-0.472 0.768,-0.472 h 0.334 V 3.677 Z m 28.491,21.438 c 0,0.432 0.401,0.77 0.802,0.77 h 2.343 c 0.434,0 0.768,-0.338 0.768,-0.77 v -2.608 c 0,-0.402 -0.334,-0.736 -0.768,-0.736 h -2.343 c -0.401,0 -0.802,0.334 -0.802,0.736 z m -6.186,0 c 0,0.432 0.366,0.77 0.802,0.77 h 2.308 c 0.437,0 0.837,-0.338 0.837,-0.77 v -2.608 c 0,-0.402 -0.435,-0.736 -0.837,-0.736 h -2.308 c -0.436,0 -0.802,0.334 -0.802,0.736 z M -65.28,7.555 c 0,0.235 0.603,0.401 1.103,0.401 h 3.112 c 0.767,0 1.942,0.104 1.942,1.141 v 9.663 c 0,0.368 0.268,0.636 0.668,0.636 h 2.907 c 0.366,0 0.634,-0.268 0.634,-0.636 V 8.527 c 0.271,-0.467 1.575,-0.571 2.175,-0.571 h 0.802 V 3.677 h -0.401 c -1.703,0 -3.577,0.202 -4.748,1.137 -1.235,-0.869 -3.178,-1.137 -4.613,-1.137 h -2.478 c -0.5,0 -1.103,0.133 -1.103,0.4 z m 12.241,0 c 0,0.235 0.601,0.401 1.102,0.401 h 2.945 c 1.069,0 1.304,0.034 1.304,1.106 v 19.363 c 0,0.4 0.3,0.7 0.668,0.7 h 3.042 c 0.37,0 0.637,-0.3 0.637,-0.7 V 8.995 c 0,-1.205 -0.033,-2.777 -0.166,-3.979 -0.101,-0.434 -0.235,-0.736 -0.77,-0.973 -0.968,-0.264 -3.712,-0.366 -5.517,-0.366 h -2.143 c -0.501,0 -1.102,0.133 -1.102,0.4 z m 13.979,20.902 c 0,0.368 0.268,0.668 0.668,0.668 h 3.01 c 0.402,0 0.669,-0.3 0.669,-0.668 V 4.381 c 0,-0.368 -0.267,-0.704 -0.669,-0.704 h -3.01 c -0.4,0 -0.668,0.336 -0.668,0.704 z m 26.351,-31.335 c 0,0.436 0.368,0.703 0.737,0.703 h 2.275 c 0.366,0 0.735,-0.267 0.735,-0.703 v -2.376 c 0,-0.366 -0.369,-0.668 -0.735,-0.668 h -2.275 c -0.369,0 -0.737,0.302 -0.737,0.668 z m -6.218,0 c 0,0.436 0.368,0.703 0.77,0.703 h 2.238 c 0.4,0 0.768,-0.267 0.768,-0.703 v -2.376 c 0,-0.366 -0.402,-0.668 -0.768,-0.668 h -2.238 c -0.402,0 -0.77,0.302 -0.77,0.668 z M -24.314,10.7 c 0,0.969 0.168,2.978 0.435,4.413 0.067,0.436 0.302,0.669 0.67,0.669 h 2.574 c 0.436,0 0.602,-0.2 0.57,-0.634 -0.102,-0.97 -0.168,-2.072 -0.168,-2.708 0,-4.65 0.767,-8.126 6.756,-8.126 1.204,0 2.173,0.067 3.109,0.201 0.101,2.238 0.101,3.275 0.101,5.082 v 2.94 c 0,5.086 3.075,7.426 8.592,7.426 1.775,0 3.646,-0.201 4.821,-0.434 0.366,-0.101 0.567,-0.235 0.567,-0.669 V 9.129 C 3.713,8.16 4.081,7.956 5.25,7.956 H 6.787 V 3.677 H 4.146 c -3.077,0 -4.68,0.734 -4.68,4.213 v 8.026 c -0.669,0.101 -1.003,0.134 -1.641,0.134 -2.54,0 -3.846,-0.969 -3.846,-3.913 V 6.619 c 0,-1.603 -0.033,-3.678 -0.13,-5.25 0,-0.4 -0.239,-0.634 -0.74,-0.735 -1.871,-0.3 -4.247,-0.5 -6.685,-0.5 -7.66,0 -10.738,3.645 -10.738,10.566 M 27.288,7.858 c 0.567,0 0.669,0.366 0.669,2.206 v 0.502 c 0,4.08 -1.904,5.384 -6.287,5.384 -1.507,0 -4.582,-0.2 -6.255,-1.438 V 7.926 C 16.452,7.89 17.725,7.858 19.43,7.858 Z M 6.052,7.358 c 0,0.365 0.302,0.598 0.669,0.598 h 4.348 v 20.469 c 0,0.4 0.267,0.7 0.668,0.7 h 3.042 c 0.369,0 0.636,-0.3 0.636,-0.7 v -10.2 c 2.342,1.604 5.789,1.804 7.358,1.804 5.718,0 9.396,-2.339 9.396,-8.962 V 9.698 C 32.169,8.224 32.036,6.151 31.736,4.814 31.635,4.381 31.367,3.945 30.667,3.847 29.427,3.677 24.444,3.677 22.541,3.677 H 6.721 c -0.367,0 -0.669,0.236 -0.669,0.603 z m 14.279,19.396 c 0,0.433 0.366,0.767 0.802,0.767 h 2.643 c 0.401,0 0.736,-0.334 0.736,-0.767 v -2.611 c 0,-0.401 -0.335,-0.736 -0.768,-0.736 h -2.611 c -0.498,0 -0.802,0.335 -0.802,0.736 z M 42.235,11.569 c 0,-2.54 1.039,-3.743 3.545,-3.743 h 2.512 v 8.156 c -0.637,0.068 -1.337,0.102 -2.042,0.102 -2.54,0 -4.015,-1.505 -4.015,-4.081 z M 39.263,-1.039 c 0,0.371 0.198,0.571 0.599,0.571 h 3.046 c 3.476,0 5.315,0.602 5.315,3.142 V 3.677 H 45.78 c -4.848,0 -7.756,2.509 -7.756,7.357 v 0.669 c 0,5.25 3.209,8.26 8.963,8.26 1.705,0 3.978,-0.234 4.915,-0.567 0.436,-0.168 0.57,-0.268 0.57,-0.636 V 7.956 h 2.941 V 3.677 h -3.01 V 2.54 c -0.433,-5.484 -4.012,-6.821 -8.593,-6.821 -0.768,0 -3.513,0 -4.013,0.168 -0.436,0.099 -0.534,0.267 -0.534,0.634 z M 57.588,0 c 0,0.434 0.367,0.768 0.767,0.768 h 2.577 c 0.435,0 0.837,-0.334 0.837,-0.768 v -2.678 c 0,-0.366 -0.402,-0.7 -0.837,-0.7 h -2.577 c -0.4,0 -0.767,0.334 -0.767,0.7 z m -2.276,3.677 c -0.502,0 -1.102,0.133 -1.102,0.4 v 3.478 c 0,0.235 0.6,0.401 1.102,0.401 h 3.445 c 1.069,0 1.339,0.034 1.339,1.106 v 5.217 c 0,1.369 -0.037,2.876 -0.07,4.481 0,0.368 0.272,0.636 0.673,0.636 h 2.807 c 0.5,0 0.701,-0.268 0.733,-0.636 0.034,-1.437 0.071,-2.476 0.071,-3.446 v -4.346 c 0,-2.842 0,-4.75 -0.136,-5.952 C 64.073,4.582 63.939,4.28 63.405,4.043 62.47,3.779 59.826,3.677 58.021,3.677 Z m 14.881,20.132 c 0,0.369 0.268,0.669 0.669,0.669 h 3.01 c 0.402,0 0.67,-0.3 0.67,-0.669 V 4.381 c 0,-0.368 -0.268,-0.704 -0.67,-0.704 h -3.01 c -0.401,0 -0.669,0.336 -0.669,0.704 z m -0.599,2.777 c -0.372,0 -0.534,0.133 -0.534,0.4 v 0.971 c 0,0.232 0.162,0.334 0.534,0.334 h 0.635 c -0.368,0.534 -0.536,1.235 -0.536,1.908 0,1.871 1.104,2.807 3.342,2.807 0.366,0 1.039,-0.034 1.574,-0.2 0.235,-0.035 0.369,-0.168 0.369,-0.334 v -0.904 c 0,-0.233 -0.134,-0.335 -0.436,-0.335 h -1.169 c -1.174,0 -1.675,-0.366 -1.675,-1.337 0,-0.771 0.302,-1.337 0.703,-1.573 h 2.341 c 0.369,0 0.535,-0.099 0.535,-0.334 v -1.003 c 0,-0.267 -0.166,-0.4 -0.535,-0.4 z m 23.608,-9.633 c 0,0.27 0.2,0.402 0.602,0.402 h 0.5 c -0.268,0.436 -0.434,1.239 -0.434,1.873 0,2.172 1.369,3.345 3.779,3.345 0.402,0 1.038,-0.034 1.671,-0.2 0.302,-0.067 0.436,-0.268 0.436,-0.569 v -1.205 c 0,-0.302 -0.134,-0.436 -0.436,-0.436 -0.266,0 -1.069,0.066 -1.336,0.066 -1.035,0 -1.505,-0.566 -1.505,-1.403 0,-0.7 0.302,-1.235 0.535,-1.373 h 2.507 c 0.401,0 0.604,-0.164 0.604,-0.464 v -1.373 c 0,-0.302 -0.203,-0.468 -0.604,-0.468 h -5.717 c -0.402,0 -0.602,0.166 -0.602,0.468 z M 88.42,14.245 c 0.367,0 0.569,-0.201 0.569,-0.634 -0.034,-0.503 -0.034,-1.274 -0.034,-1.505 0,-3.21 1.604,-4.15 6.052,-4.15 h 8.094 c 0.801,0 1.907,0.104 1.907,1.141 v 19.328 c 0,0.4 0.302,0.7 0.669,0.7 h 3.008 c 0.368,0 0.671,-0.3 0.671,-0.7 V 8.527 c 0.268,-0.467 1.471,-0.571 2.105,-0.571 h 0.869 V 3.677 h -0.401 c -1.337,0 -3.278,0.17 -4.614,0.937 -1.203,-0.767 -3.111,-0.937 -4.616,-0.937 h -8.428 c -7.153,0 -9.264,2.642 -9.264,7.291 0,0.433 0.035,1.94 0.203,2.608 0.134,0.503 0.268,0.669 0.7,0.669 z m 28.993,10.834 c 0,0.438 0.367,0.772 0.805,0.772 h 2.638 c 0.402,0 0.738,-0.334 0.738,-0.772 v -2.607 c 0,-0.401 -0.336,-0.738 -0.77,-0.738 h -2.606 c -0.505,0 -0.805,0.337 -0.805,0.738 z M 112.362,3.677 c -0.5,0 -1.101,0.133 -1.101,0.4 v 3.478 c 0,0.235 0.601,0.401 1.101,0.401 h 3.146 c 0.767,0 1.938,0.104 1.938,1.141 v 9.663 c 0,0.368 0.267,0.636 0.672,0.636 h 2.906 c 0.368,0 0.635,-0.268 0.635,-0.636 V 8.527 c 0.267,-0.467 1.575,-0.571 2.175,-0.571 h 0.802 V 3.677 h -0.401 c -1.706,0 -3.577,0.202 -4.748,1.137 -1.235,-0.869 -3.177,-1.137 -4.613,-1.137 z M 126.576,0 c 0,0.434 0.369,0.768 0.77,0.768 h 2.574 c 0.435,0 0.837,-0.334 0.837,-0.768 v -2.678 c 0,-0.366 -0.402,-0.7 -0.837,-0.7 h -2.574 c -0.401,0 -0.77,0.334 -0.77,0.7 z m -1.94,3.677 c -0.5,0 -1.102,0.133 -1.102,0.4 v 3.478 c 0,0.235 0.602,0.401 1.102,0.401 h 3.111 c 1.069,0 1.337,0.034 1.337,1.106 v 5.317 c 0,1.371 -0.032,2.878 -0.064,4.481 0,0.368 0.266,0.635 0.667,0.635 h 2.81 c 0.5,0 0.702,-0.267 0.734,-0.635 0.034,-1.439 0.068,-2.476 0.068,-3.445 v -4.447 c 0,-2.842 0,-4.75 -0.134,-5.952 -0.1,-0.434 -0.233,-0.736 -0.768,-0.973 -0.935,-0.264 -3.581,-0.366 -5.383,-0.366 z" style="fill:#282f37;fill-opacity:1;fill-rule:nonzero;stroke:none" id="path94"/></g></g></g></g></svg>