<svg width="37" height="36" viewBox="0 0 37 36" fill="none" xmlns="http://www.w3.org/2000/svg">
<path d="M18.5 3.3125C16.5712 3.3125 14.6613 3.6924 12.8793 4.43052C11.0974 5.16864 9.47823 6.25051 8.11437 7.61437C5.35993 10.3688 3.8125 14.1046 3.8125 18C3.8125 24.4919 8.02781 29.9997 13.8588 31.9531C14.5931 32.0706 14.8281 31.6153 14.8281 31.2187V28.7366C10.7597 29.6178 9.89312 26.7684 9.89312 26.7684C9.2175 25.0647 8.26281 24.6094 8.26281 24.6094C6.92625 23.6987 8.36562 23.7281 8.36562 23.7281C9.83437 23.8309 10.6128 25.2409 10.6128 25.2409C11.8906 27.4734 14.0497 26.8125 14.8869 26.46C15.0191 25.5053 15.4009 24.8591 15.8122 24.4919C12.5516 24.1247 9.12937 22.8616 9.12937 17.2656C9.12937 15.6353 9.6875 14.3281 10.6422 13.2853C10.4953 12.9181 9.98125 11.3906 10.7891 9.40781C10.7891 9.40781 12.0228 9.01125 14.8281 10.9059C15.9884 10.5828 17.2516 10.4212 18.5 10.4212C19.7484 10.4212 21.0116 10.5828 22.1719 10.9059C24.9772 9.01125 26.2109 9.40781 26.2109 9.40781C27.0188 11.3906 26.5047 12.9181 26.3578 13.2853C27.3125 14.3281 27.8706 15.6353 27.8706 17.2656C27.8706 22.8762 24.4338 24.11 21.1584 24.4772C21.6872 24.9325 22.1719 25.8284 22.1719 27.1944V31.2187C22.1719 31.6153 22.4069 32.0853 23.1559 31.9531C28.9869 29.985 33.1875 24.4919 33.1875 18C33.1875 16.0712 32.8076 14.1613 32.0695 12.3793C31.3314 10.5974 30.2495 8.97823 28.8856 7.61437C27.5218 6.25051 25.9026 5.16864 24.1207 4.43052C22.3387 3.6924 20.4288 3.3125 18.5 3.3125Z" fill="black"/>
</svg>
